<svg xmlns="http://www.w3.org/2000/svg" viewBox="0 0 799.92 799.92"><defs><style>.cls-1,.cls-24{fill:#013c5c;}.cls-2,.cls-22{fill:#5896cc;}.cls-10,.cls-13,.cls-14,.cls-16,.cls-17,.cls-18,.cls-2,.cls-24,.cls-25,.cls-26,.cls-27,.cls-28,.cls-33,.cls-34,.cls-35,.cls-36,.cls-37,.cls-39,.cls-4,.cls-40,.cls-6,.cls-7,.cls-8,.cls-9{fill-rule:evenodd;}.cls-3,.cls-4{fill:#ffd7b7;}.cls-37,.cls-5{fill:#3f73a1;}.cls-23,.cls-6{fill:#ffcd61;}.cls-12,.cls-7{fill:#ffae00;}.cls-8{fill:#004e78;}.cls-29,.cls-9{fill:#fff;}.cls-10,.cls-11{fill:#5085a1;}.cls-13,.cls-15{fill:#f06358;}.cls-14{fill:#ee4e42;}.cls-16{fill:#7fb4e3;}.cls-17{fill:#4d86b8;}.cls-18,.cls-32{fill:#6a8733;}.cls-19{fill:#b3d6f5;}.cls-20{fill:#c17bb5;}.cls-21{fill:#b6a94a;}.cls-25{fill:#83a14a;}.cls-26{fill:#e7d1a7;}.cls-27{fill:#d584d0;}.cls-28{fill:#9f4c98;}.cls-30{fill:#add95b;}.cls-31{fill:#91bde3;}.cls-33{fill:#d4b194;}.cls-34,.cls-43{fill:#71a9d9;}.cls-35{fill:#c0f7fc;}.cls-36,.cls-44{fill:#cc3d33;}.cls-38{fill:#badaf5;}.cls-39{fill:#95ba50;}.cls-40{fill:#db9600;}.cls-41{fill:#fffdfa;}.cls-42{fill:#ffde96;}</style></defs><title>Recurso 1</title><g id="Capa_2" data-name="Capa 2"><g id="Objects"><rect class="cls-1" x="417.75" y="105.47" width="142.56" height="352.59" transform="translate(-64.82 390.39) rotate(-41.05)"/><path class="cls-2" d="M612.42,385.58l-27-31v-42l47.84,54.95-20.82,18.13Zm-27,23.53,18.4-16-16-18.35-2.42,2.11Zm0-54.57-10.74-12.33v-42l10.74,12.33v42Zm0,22.3V409.1L583,411.21l-8.32-9.55V386.19l10.74-9.35Zm-10.74,41.61V418l.22.25-.22.19Zm0-43.35V359.62l7.66,8.8Zm0-32.89-10.74-12.33v-42l10.74,12.33v42Zm0,17.42V375.1l-10.74,9.35V352.18l2.42-2.11,8.32,9.55Zm0,26.56v15.47l-7.66-8.8,7.66-6.67Zm0,31.82v.45l-10.74,9.35V405.68Zm-10.74-88.13-10.74-12.33v-42l10.74,12.33v42Zm0,22.3v32.26l-2.42,2.11L553.18,377V361.53l10.74-9.35Zm0,53.5V427.8l-9.86,8.59-.87-1v-30.5l5.71-5,5,5.77Zm-10.74-11.89v-.45l.22.25-.22.19Zm0-43.36V335l7.66,8.8Zm0-32.89-10.74-12.33v-42l10.74,12.33v42Zm0,17.42v15.47l-10.74,9.35V327.52l2.42-2.11,8.32,9.55Zm0,26.56V377l-7.66-8.8,7.66-6.67Zm0,31.82v.45l-10.74,9.35V381l10.74,12.33Zm0,11.54v30.5l-10.74-12.33v-8.82Zm-10.74-99.67-10.74-12.33v-42l10.74,12.33v42Zm0,22.3v32.26L540,361.89l-8.32-9.55V336.87l10.74-9.35Zm0,53.5v22.12l-9.86,8.59-.87-1v-30.5l5.71-5,5,5.77Zm0,33.21v8.82l-4.37-5,4.37-3.8Zm-10.74-45.1v-.44l.22.25-.22.19Zm0-43.36V310.3l7.66,8.8Zm0-32.89-13.5-15.5V261.91l13.16-11.45.34.4v42Zm0,17.42v15.47l-13.16,11.45-.34-.39V305.26l5.18-4.51,8.32,9.55Zm0,26.56-7.66,6.67,7.66,8.8V336.87Zm0,31.82v.44l-13.5,11.75v-27.7l13.5,15.51Zm0,11.54L518.21,392v3.24l13.5,15.5v-30.5Zm-13.5-129.4,7.66-6.67-7.66-8.8Zm0,26.56-4-4.58v-7.42l4-3.47v15.47Zm0-42v15.47l-4,3.47V230.77l4,4.58Zm0,69.92v31.57l-4-4.58V308.73l4-3.47Zm0,47.92v27.7l-4,3.47V352.09l1.73-1.5,2.26,2.59Zm0,38.79v3.24l-1.6-1.84,1.6-1.4Zm-4-94.33v-7.42l3.68,4.22Zm0-24.84-3.68-4.22,3.68-3.2v7.42Zm0-42v23.52L506.52,261V228.73l3.38-2.94,4.33,5Zm0,59.45v7.42l-7.71,6.71v-23l7.71,8.85Zm0,18.52v23.52l-7.71-8.85v-8l7.71-6.71Zm0,43.36v32.26l-3.11,2.71-4.59-5.28v-23l7.71-6.71Zm-7.71-4.38v-8l3.94,4.53Zm0-119V261l-1.46,1.27-8.32-9.55V237.25l9.78-8.51Zm0,52.63v23l-9.43,8.21-.34-.4V280.6l5.18-4.51,4.59,5.28Zm0,34.08v8l-3.94-4.53,3.94-3.43Zm0,24.31v8l-9.78,8.51v-27.7l9.78,11.23Zm0,19.05v23l-9.78-11.23v-3.24l9.78-8.51Zm-9.78-132.64V210.68l7.66,8.8Zm0-15.47v15.47l-4,3.47V206.11l4,4.58Zm0,26.56v15.47l-4-4.58v-7.42l4-3.47Zm0,43.36v31.57l-4-4.58V284.07l4-3.47Zm0,47.92v27.7l-4,3.47V327.43l1.73-1.5,2.26,2.59Zm0,38.79v3.24l-1.61-1.84,1.61-1.4Zm-4-94.33v-7.42l3.68,4.22Zm0-66.88v23.52L485,236.34V197.26l7.71,8.85Zm0,34.61v7.42l-3.68-4.22,3.68-3.2Zm0,24.84V273L485,279.69v-23l7.71,8.85Zm0,18.52V307.6L485,298.74v-8l7.71-6.71Zm0,43.35v32.26l-3.11,2.71L485,357.13v-23l7.71-6.71ZM485,323v-8l3.94,4.53Zm0-125.79v39.08l-1.46,1.27L467.3,218.9v-42L485,197.26Zm0,59.45v23l-9.43,8.21-8.32-9.55V262.88l13.16-11.45,4.59,5.28Zm0,34.08v8l-3.94-4.53,3.94-3.43Zm0,24.31v8l-16.88,14.69-.87-1v-30.5l5.71-5,12,13.83Zm0,19-11.38,9.91L485,357.13v-23Zm-17.75-39v-.45l.22.25-.22.19Zm0-43.35,7.66-6.67-7.66-8.8Zm0-74.93v42l-10.74-12.33v-42l10.74,12.33Zm0,59.45v15.47l-10.74,9.35V228.88l2.42-2.11,8.32,9.55Zm0,26.56v15.47l-7.66-8.8,7.66-6.67Zm0,31.82v.45l-10.74,9.35V282.37L467.3,294.7Zm0,11.54v30.5l-10.74-12.33v-8.82Zm-10.74-141.7v42l-10.74-12.33v-42l10.74,12.33Zm0,64.34v32.26l-2.42,2.11-8.32-9.55V238.22l10.74-9.35Zm0,53.5V304.5l-9.86,8.59-.87-1v-30.5l5.71-5,5,5.77Zm0,33.21v8.82l-4.37-5,4.37-3.8Zm-10.74-45.1V270l.22.25-.22.19Zm0-43.35V211.66l7.66,8.8Zm0-74.92v42l-10.74-12.33v-42l10.74,12.33Zm0,59.45v15.47l-10.74,9.35V204.21l2.42-2.11,8.32,9.55Zm0,26.56V253.7l-7.66-8.8,7.66-6.67Zm0,31.82v.44l-10.74,9.35V257.71L445.83,270Zm0,11.54v30.5l-10.74-12.33v-8.82Zm-10.74-141.7v42l-17.49-20.08v-29.1l6.41-5.58,11.08,12.73Zm0,64.34v32.26l-2.42,2.11-15.07-17.3v-1.84l17.49-15.22Zm0,53.5v22.12l-9.86,8.59-7.62-8.76V262.79l12.46-10.85,5,5.77Zm0,33.21v8.82l-4.37-5,4.37-3.8ZM417.61,251.7l7-6.07-7-8V251.7Zm0-43.36L432,195.8l-14.41-16.55Zm0-75.62v29.1L406.87,149.5v-7.42l10.74-9.35Zm0,46.52v29.1l-6.41,5.58-4.33-5V185.43l9.17-8,1.57,1.8Zm0,40.19v1.84l-.91-1,.91-.79Zm0,18.19V251.7l-10.74,9.35V228.79l1.73-1.5,9,10.35Zm0,25.17v16.87l-8.35-9.6,8.35-7.27Zm-10.74-88.45v-7.42l3.68,4.22Zm0-32.26v7.42l-3.68-4.22,3.68-3.2Zm0,24.84v7.42l-7.71,6.71v-23l7.71,8.85Zm0,18.52V209l-7.71-8.85v-8l7.71-6.71Zm0,43.36v32.26l-3.11,2.71-4.6-5.28v-23l7.71-6.71Zm-7.71-4.38v-8l3.94,4.53Zm0-66.34v23l-9.43,8.21-12-13.83v-8l16.88-14.69,4.59,5.28Zm0,34.08v8l-3.94-4.53,3.94-3.43Zm0,24.31v8L382.29,239.1l-4.59-5.28v-23l9.43-8.21,12,13.83Zm0,19-11.38,9.91,11.38,13.07v-23Zm-21.47-35.75v-8l3.94,4.53Zm0-32.26v8l-3.94-4.53,3.94-3.43Zm0,24.31v8l-16.88,14.69-16-18.35L365.66,178l12,13.83Zm0,19-11.38,9.91,11.38,13.07Z"/><rect class="cls-3" x="610.38" y="246.47" width="67.96" height="48.7" transform="translate(-19.44 489.7) rotate(-41.05)"/><path class="cls-4" d="M564.79,303.28c4.42-3.71,9.7-8.33,16-13.74L551,293.79c-12.58,1.8-15.39-9.14-14.31-15.26l65.7-14.41c9.16-2,21.09,5.45,29.88,15,18.17,19.73,15.76,43.56-11.66,68.09l-17.4,23c-7.41,9.65-21-.92-13.41-10.61l7.44-9.53a10.26,10.26,0,0,1-2.6-.3L578.12,367c-8.45,8.94-19.75-3.86-12.71-11.44L578.88,341a13.47,13.47,0,0,1-1.35-1.33l-18.57,17c-8.37,7.64-19.81-5.11-11.47-12.68L569,324.36q-.31-1.27-.52-2.56l-47,34.7c-8.94,6.6-19.42-6.91-10.1-13.8Z"/><rect class="cls-5" x="638.54" y="237.98" width="18.46" height="59.75" transform="translate(-16.66 491.2) rotate(-41.05)"/><polygon class="cls-6" points="799.92 182.07 799.92 86.72 631.2 234.77 678.26 288.82 799.92 182.07"/><rect class="cls-3" x="488" y="105.92" width="67.96" height="48.7" transform="translate(42.77 374.78) rotate(-41.04)"/><path class="cls-4" d="M478.88,204.61c4.29-3.87,9.59-8.46,15.8-13.94l-7.56,27.62c-3.36,12.26,7,17.75,13,16.83l22.7-62.39c3.2-8.81-2.5-21.64-10.74-31.66-17-20.72-41-21.61-69,2.17l-49.51,28.14c-10.58,6-2,20.9,8.66,14.74L437,166a10.26,10.26,0,0,0-.06,2.62l-43.33,30.89c-10,7.14,1.11,20.09,9.58,14.16l40.27-28.19a13.62,13.62,0,0,0,1.13,1.52l-43.25,36.15c-8.7,7.27,2.34,20.32,11,13.1l46.31-38.71q1.21.49,2.46.87l-40.84,41.78c-7.77,8,4.17,20.19,12.28,11.9Z"/><rect class="cls-5" x="516.16" y="97.42" width="18.46" height="59.75" transform="translate(45.55 376.29) rotate(-41.05)"/><polygon class="cls-6" points="616.56 0 725.43 0 555.88 148.27 508.82 94.21 616.56 0"/><polygon class="cls-7" points="799.92 134.4 799.92 86.72 631.2 234.77 654.73 261.79 799.92 134.4"/><polygon class="cls-7" points="670.99 0 616.56 0 508.82 94.21 532.35 121.24 670.99 0"/><path class="cls-4" d="M550.18,510.79h0a9.9,9.9,0,0,1,10.92,8.6L574,617.31a9.81,9.81,0,0,1-8.6,10.92h0a9.9,9.9,0,0,1-10.91-8.6L541.58,521.7A9.81,9.81,0,0,1,550.18,510.79Z"/><polygon class="cls-4" points="574.8 685.34 615.76 649.68 587.74 617.5 568.07 554.67 507.18 607.68 574.8 685.34"/><path class="cls-4" d="M574.53,530.93h0a9.9,9.9,0,0,1,10.91,8.6l12.86,97.93a9.81,9.81,0,0,1-8.6,10.92h0a9.9,9.9,0,0,1-10.91-8.6l-12.86-97.93A9.81,9.81,0,0,1,574.53,530.93Z"/><path class="cls-4" d="M523.63,481.85h0a9.9,9.9,0,0,1,10.92,8.6l12.33,94.3a9.82,9.82,0,0,1-8.6,10.92h0a9.89,9.89,0,0,1-10.91-8.6L515,492.77A9.81,9.81,0,0,1,523.63,481.85Z"/><path class="cls-8" d="M443.34,500.38,480,468.47a17.16,17.16,0,0,1,24.14,1.67l84.71,97.3a17.16,17.16,0,0,1-1.67,24.14l-36.65,31.91a17.16,17.16,0,0,1-24.14-1.67l-84.71-97.3A17.16,17.16,0,0,1,443.34,500.38Z"/><path class="cls-9" d="M445.09,517l51.11-44.5a.24.24,0,0,1,.34,0l88,101.06a.24.24,0,0,1,0,.34l-51.11,44.5a.24.24,0,0,1-.34,0l-88-101.07A.24.24,0,0,1,445.09,517Z"/><path class="cls-10" d="M454.84,495.71l18.94-16.49a1.24,1.24,0,0,1,1.75.12h0a1.24,1.24,0,0,1-.12,1.75l-18.94,16.49a1.24,1.24,0,0,1-1.75-.12h0A1.24,1.24,0,0,1,454.84,495.71Z"/><circle class="cls-11" cx="563.75" cy="601.67" r="4.18" transform="translate(-256.52 518.13) rotate(-41.05)"/><path class="cls-4" d="M573.42,521.83h0a9.87,9.87,0,0,1,10.92,8.6l2.2,18.21a9.85,9.85,0,0,1-8.6,10.92h0A9.86,9.86,0,0,1,567,551l-2.2-18.21A9.84,9.84,0,0,1,573.42,521.83Z"/><path class="cls-4" d="M548.92,500.4h0a9.87,9.87,0,0,1,10.92,8.6l1.88,15.51a9.85,9.85,0,0,1-8.6,10.92h0a9.86,9.86,0,0,1-10.91-8.6l-1.88-15.51A9.84,9.84,0,0,1,548.92,500.4Z"/><rect class="cls-12" x="561.65" y="650.92" width="68.63" height="34.76" transform="translate(-292.34 555.61) rotate(-41.04)"/><polygon class="cls-13" points="578.15 706.84 636.59 655.96 762.57 799.92 659.61 799.92 578.15 706.84"/><path class="cls-4" d="M551.75,648.8l5.23-4.56-6.21-6-49.8-48c-10.36-10-19-5.06-25.84.9l58.79,56.71C538.86,652.59,546.89,653,551.75,648.8Z"/><polygon class="cls-14" points="607.37 681.4 636.59 655.96 762.57 799.92 711.09 799.92 607.37 681.4"/><circle class="cls-15" cx="517.8" cy="548.9" r="18.18" transform="translate(-233.16 474.94) rotate(-41.04)"/><path class="cls-16" d="M520.22,566.92a18.27,18.27,0,0,1-9.19-1.14l6.77-16.87Z"/><path class="cls-17" d="M511,565.78A18.19,18.19,0,0,1,500,545.47l17.85,3.44Z"/><path class="cls-7" d="M500,545.47a18.1,18.1,0,0,1,5.91-10.27L517.8,548.9Z"/><path class="cls-18" d="M505.87,535.2,517.8,548.9l1.4-18.12A18.12,18.12,0,0,0,505.87,535.2Z"/><rect class="cls-19" x="517.6" y="578.22" width="52.56" height="1.27" transform="translate(-246.42 499.44) rotate(-41.05)"/><rect class="cls-19" x="519.44" y="580.33" width="52.56" height="1.27" transform="translate(-247.35 501.16) rotate(-41.05)"/><rect class="cls-19" x="521.27" y="582.44" width="52.56" height="1.27" transform="translate(-248.29 502.88) rotate(-41.05)"/><rect class="cls-19" x="523.1" y="584.54" width="52.56" height="1.27" transform="translate(-249.22 504.6) rotate(-41.05)"/><rect class="cls-19" x="527.91" y="594.59" width="28.37" height="1.27" transform="translate(-257.61 502.28) rotate(-41.05)"/><rect class="cls-19" x="511.96" y="569" width="52.56" height="6.76" transform="translate(-243.56 494.15) rotate(-41.05)"/><rect class="cls-15" x="481.13" y="527.44" width="37.16" height="1.38" transform="translate(-223.96 457.96) rotate(-41.05)"/><rect class="cls-20" x="474.97" y="512.36" width="6.61" height="28.81" transform="translate(-228.34 443.54) rotate(-41.04)"/><rect class="cls-21" x="484.3" y="516.88" width="6.61" height="17.95" transform="translate(-225.45 449.43) rotate(-41.04)"/><rect class="cls-15" x="492.06" y="517.19" width="6.61" height="11.87" transform="translate(-221.76 453.93) rotate(-41.05)"/><rect class="cls-22" x="495.99" y="507.3" width="6.61" height="17.44" transform="translate(-216.11 454.61) rotate(-41.04)"/><rect class="cls-23" x="503.38" y="506.64" width="6.61" height="12.47" transform="translate(-212.24 458.83) rotate(-41.05)"/><path class="cls-24" d="M320.74,500.91l-55.45,48.28a26,26,0,0,0-2.52,36.52l83.34,95.72A26,26,0,0,0,382.63,684l55.45-48.28a26,26,0,0,0,2.53-36.52l-83.34-95.72A26,26,0,0,0,320.74,500.91Z"/><path class="cls-25" d="M343.11,501.3,262.6,571.39a.38.38,0,0,0,0,.53l96.18,110.47a.38.38,0,0,0,.53,0l80.51-70.09a.38.38,0,0,0,0-.53L343.64,501.34A.38.38,0,0,0,343.11,501.3Z"/><path class="cls-10" d="M306.28,519.35l-20.73,18a1.36,1.36,0,0,0-.13,1.91h0a1.36,1.36,0,0,0,1.91.13l20.73-18a1.36,1.36,0,0,0,.13-1.91h0A1.36,1.36,0,0,0,306.28,519.35Z"/><polygon class="cls-26" points="250.86 657.03 186.86 705.66 180.05 756.48 189.24 767.03 200.22 767.86 279.95 707.23 250.86 657.03"/><polygon class="cls-4" points="272.51 711.29 197.72 776.77 180.68 757.19 186.83 709.37 230.67 671.01 272.51 711.29"/><polygon class="cls-9" points="254.65 733.95 207.91 774.03 195.58 774.31 180.05 756.48 187.11 703.84 210.76 683.54 254.65 733.95"/><polygon class="cls-27" points="235.97 752.88 182.15 799.92 76 799.92 190.09 700.2 235.97 752.88"/><polygon class="cls-28" points="211.87 725.2 126.38 799.92 76 799.92 190.09 700.2 211.87 725.2"/><rect class="cls-29" x="301.51" y="537.1" width="99.61" height="109.81" transform="translate(-302.39 376.21) rotate(-41.05)"/><rect class="cls-12" x="384.64" y="505.98" width="4.84" height="109.81" transform="translate(-273.17 392.03) rotate(-41.05)"/><rect class="cls-30" x="376.55" y="541.27" width="7.37" height="51.11" transform="translate(-278.75 389.02) rotate(-41.05)"/><rect class="cls-22" x="353.14" y="526.67" width="20.31" height="109.81" transform="translate(-292.59 381.51) rotate(-41.04)"/><rect class="cls-31" x="372.58" y="538.34" width="3.09" height="67.63" transform="translate(-283.74 386.31) rotate(-41.05)"/><rect class="cls-12" x="315.53" y="556.53" width="16.41" height="27.57" transform="translate(-294.93 352.77) rotate(-41.05)"/><rect class="cls-15" x="338.16" y="582.53" width="16.41" height="27.57" transform="translate(-306.43 374.02) rotate(-41.04)"/><rect class="cls-32" x="360.8" y="608.52" width="16.41" height="27.57" transform="translate(-317.94 395.28) rotate(-41.05)"/><rect class="cls-12" x="312.67" y="566.9" width="8.85" height="109.81" transform="translate(-330.37 361.07) rotate(-41.05)"/><rect class="cls-31" x="313.14" y="564.41" width="3.09" height="27.57" transform="translate(-302.32 348.76) rotate(-41.04)"/><rect class="cls-31" x="309.14" y="567.9" width="3.09" height="27.57" transform="translate(-305.6 347) rotate(-41.05)"/><rect class="cls-31" x="305.14" y="571.38" width="3.09" height="27.57" transform="translate(-308.87 345.22) rotate(-41.05)"/><rect class="cls-31" x="297.81" y="576.11" width="3.09" height="17.46" transform="translate(-310.45 340.34) rotate(-41.05)"/><rect class="cls-31" x="335.77" y="590.41" width="3.09" height="27.57" transform="matrix(0.75, -0.66, 0.66, 0.75, -313.83, 370.02)"/><rect class="cls-31" x="331.77" y="593.89" width="3.09" height="27.57" transform="translate(-317.1 368.24) rotate(-41.04)"/><rect class="cls-31" x="327.77" y="597.38" width="3.09" height="27.57" transform="translate(-320.37 366.47) rotate(-41.04)"/><rect class="cls-31" x="320.45" y="602.1" width="3.09" height="17.46" transform="translate(-321.96 361.59) rotate(-41.05)"/><rect class="cls-31" x="358.41" y="616.4" width="3.09" height="27.57" transform="translate(-325.34 391.26) rotate(-41.04)"/><rect class="cls-31" x="354.4" y="619.89" width="3.09" height="27.57" transform="translate(-328.61 389.5) rotate(-41.05)"/><rect class="cls-31" x="350.4" y="623.37" width="3.09" height="27.57" transform="translate(-331.88 387.73) rotate(-41.05)"/><rect class="cls-31" x="343.08" y="628.1" width="3.09" height="17.46" transform="translate(-333.46 382.83) rotate(-41.04)"/><path class="cls-33" d="M276.48,591.68l-29.65,38.18c-3.81,4.92-13.41,27.35-8.82,31.54s19-8.13,22.71-13.14L280.07,620C291.16,603.85,281.94,595.67,276.48,591.68Z"/><path class="cls-4" d="M354.13,576.47l-42.46,36.91c9.4-1,14.9,12.11,8,19.56,9.49-2.35,15.68,9.56,10.77,17.54,9.1-.73,14.08,12.59,6.24,19.38l-35.91,31.08c-10.08,8.72-27.77,14.49-36.64,14.64-26.28.44-36.82-31.25-32.84-44.76,3.11-10.54,4.15-18.39,9.48-23.14l99.32-86.88C352.6,549.68,364.64,567.62,354.13,576.47Z"/><path class="cls-33" d="M318.34,661.9s7.25-6,13.66-11.4a8.8,8.8,0,0,0-1.54,0,11.45,11.45,0,0,0,1-2.18c-6,6.09-13.16,13.59-13.16,13.59ZM310,642.44v-.85c3.43-3.57,8.25-8.55,11.88-12.17a11.49,11.49,0,0,1-2.23,3.53,10.17,10.17,0,0,1,1.85-.28c-3.9,3.33-8.32,7.08-11.49,9.78ZM310,617v-2.19l1.62-1.46c-.08.07,0,.05.27,0a9.1,9.1,0,0,1,2.41.13C313,614.57,311.58,615.77,310,617Zm0-2.19V617c-7,5.73-15.45,12.44-15.45,12.44s9.74-9.42,15.45-14.62Zm0,26.75v.85l-4.3,3.65S307.51,644.22,310,641.59Z"/><circle class="cls-11" cx="405.47" cy="654.2" r="4.13" transform="translate(-329.9 427) rotate(-41.04)"/><polygon class="cls-9" points="329.82 543.13 327.99 544.73 328.53 541.65 331.65 541.54 329.82 543.13"/><polygon class="cls-9" points="396.77 620.02 394.93 621.62 398.06 621.5 398.6 618.43 396.77 620.02"/><path class="cls-34" d="M143.14,642.87a6.54,6.54,0,0,1,0,11.33V642.87Zm0-7.3a13.37,13.37,0,0,1,10.09,13h4a17.35,17.35,0,0,0-14.07-17v4.07Zm0-9.84a23,23,0,0,1,19.76,22.8h3.7A26.73,26.73,0,0,0,143.14,622ZM139.87,642a6.5,6.5,0,0,1,3.27.88v11.33a6.54,6.54,0,1,1-3.27-12.2Zm3.27-20v3.73a23.14,23.14,0,0,0-3.27-.23v-3.7a27,27,0,0,1,3.27.2Zm0,9.49v4.07a13.41,13.41,0,0,0-3.27-.4v-4A17.42,17.42,0,0,1,143.14,631.5Z"/><path class="cls-1" d="M645.43,437.34a27.72,27.72,0,1,1,0,55.43V487.6a22.52,22.52,0,0,0,18-9h0a22.55,22.55,0,0,0-18-36.09ZM623.27,448.4a27.66,27.66,0,0,1,22.15-11.06v5.17a22.55,22.55,0,1,0,0,45.09v5.17a27.71,27.71,0,0,1-22.15-44.37Z"/><rect class="cls-1" x="672.22" y="474.52" width="7.49" height="26.97" transform="translate(-120.2 735.39) rotate(-53.09)"/><path class="cls-1" d="M693.53,508.7a6,6,0,1,0,7.2-9.58l-20.36-15.3a6,6,0,1,0-7.2,9.58Z"/><rect class="cls-23" x="675.44" y="481.48" width="7.98" height="18.27" transform="translate(-120.87 739.29) rotate(-53.09)"/><path class="cls-23" d="M694,509.51a6.38,6.38,0,1,0,7.66-10.2L679.94,483a6.37,6.37,0,0,0-5.42-1.08l-4.79,6.37a6.37,6.37,0,0,0,2.54,4.9Z"/><path class="cls-9" d="M116.49,552.85h1.7c4.88,0,5.08-5.52,0-5.53h-1.7v.44h0a2.32,2.32,0,0,1,0,4.63h0Zm-40.14,0h40.14v-.46a2.32,2.32,0,0,1,0-4.63v-.44q-20.07,0-40.14,0v.44a2.32,2.32,0,0,1,0,4.63Zm-1.7,0h1.7v-.46a2.32,2.32,0,0,1,0-4.63v-.44h-1.7C69.57,547.33,69.78,552.85,74.65,552.85Z"/><circle class="cls-29" cx="99.5" cy="530.79" r="2.32"/><path class="cls-9" d="M117.39,549.46l-15.81-17.68a1,1,0,0,0-1.41-.08h0a1,1,0,0,0-.08,1.41l15.81,17.68a1,1,0,0,0,1.41.08h0A1,1,0,0,0,117.39,549.46Z"/><circle class="cls-29" cx="93.35" cy="530.79" r="2.32"/><path class="cls-9" d="M75.45,549.46l17.24-19.28a1,1,0,0,1,1.41-.08h0a1,1,0,0,1,.08,1.41L76.94,550.79a1,1,0,0,1-1.41.08h0A1,1,0,0,1,75.45,549.46Z"/><path class="cls-9" d="M109.81,554.5h8.09l-2.12,12.2c-.46,2.63-1.74,4.61-5.78,4.61h-.2v-3.68a2,2,0,0,0,1.11-1.51c.19-1.39.39-2.79.58-4.18s.39-2.79.58-4.18a1.52,1.52,0,0,0-1.61-1.7h0a2.07,2.07,0,0,0-.65.1Zm-6.66,0h6.66v1.66a2,2,0,0,0-1.38,1.6c-.14,1.39-.3,2.79-.44,4.18s-.29,2.79-.44,4.18a1.49,1.49,0,0,0,1.48,1.7h0a1.76,1.76,0,0,0,.78-.19v3.68h-6.66v-3.55a1.87,1.87,0,0,0,1.36-1.64q.16-2.09.32-4.18c.1-1.39.22-2.79.32-4.18a1.63,1.63,0,0,0-1.71-1.7h0l-.29,0Zm-6.73,0h6.73v1.58a1.86,1.86,0,0,0-1.63,1.68c-.06,1.39-.13,2.79-.19,4.18s-.13,2.79-.19,4.18a1.6,1.6,0,0,0,1.58,1.7h0a1.66,1.66,0,0,0,.42-.05v3.55H96.42v-3.49a1.72,1.72,0,0,0,1.69-1.7q0-2.09.07-4.18t.07-4.18a1.75,1.75,0,0,0-1.82-1.7h0Zm-6.73,0h6.73v1.56a1.75,1.75,0,0,0-1.82,1.7q0,2.09.07,4.18c0,1.39,0,2.79.06,4.18a1.72,1.72,0,0,0,1.69,1.7h0v3.49H89.69v-3.55a1.63,1.63,0,0,0,.43.06h0a1.6,1.6,0,0,0,1.58-1.7q-.09-2.09-.18-4.18t-.19-4.18a1.86,1.86,0,0,0-1.64-1.68Zm-6.66,0h6.66v1.58l-.29,0h0a1.63,1.63,0,0,0-1.72,1.7q.16,2.09.32,4.18t.32,4.18a1.87,1.87,0,0,0,1.37,1.64v3.55H83v-3.68a1.78,1.78,0,0,0,.78.19h0a1.49,1.49,0,0,0,1.48-1.7q-.22-2.09-.44-4.18t-.44-4.18a2,2,0,0,0-1.38-1.6Zm-.19,16.81c-4,0-5.32-2-5.78-4.61l-2.12-12.2H83v1.66a2.08,2.08,0,0,0-.64-.1h0a1.52,1.52,0,0,0-1.61,1.7q.28,2.09.57,4.18l.57,4.18A2,2,0,0,0,83,567.63v3.68Z"/><path class="cls-9" d="M331.08,67.3c6.67,1.37,11.66,6.44,11.66,12.45h0c0,6.18-5.17,12.56-12.22,12.56h-31c-7.55,0-13.37-6-13.37-12.56h0c0-6,5-11.09,11.66-12.45,0-.12,0-.24,0-.36,0-7.72,7.45-14,16.64-14s16.64,6.26,16.64,14C331.09,67.06,331.08,67.18,331.08,67.3Z"/><path class="cls-7" d="M211.07,521.42l5.55,15.17-14.95-6.14L154.3,481.22a3.57,3.57,0,0,1,.1-5l4.27-4.11a3.57,3.57,0,0,1,5,.1Z"/><path class="cls-6" d="M211.07,521.42l5.55,15.17L206,525.52l-49.43-51.38,2.13-2.05a3.57,3.57,0,0,1,5,.1Z"/><path class="cls-35" d="M211.07,521.42l5.55,15.17-14.95-6.14L157.93,485a37.38,37.38,0,0,1,9.39-9Z"/><path class="cls-9" d="M211.07,521.42l5.55,15.17L206,525.52l-43.73-45.46a36,36,0,0,1,5.09-4.11Z"/><path class="cls-36" d="M211.07,521.42l5.55,15.17-14.95-6.14L160.81,488a35,35,0,0,1,9.39-9Z"/><path class="cls-13" d="M210.73,521.1l5.51,15.06-10.58-11L165.11,483a33.21,33.21,0,0,1,5.08-4Z"/><path class="cls-35" d="M211.07,521.42l5.55,15.17-14.95-6.14a36.24,36.24,0,0,1,9.39-9Z"/><path class="cls-9" d="M211.07,521.42l5.55,15.17L206,525.52A35.74,35.74,0,0,1,211.07,521.42Z"/><path class="cls-37" d="M214.79,531.59l1.83,5-4.94-2a12,12,0,0,1,3.1-3Z"/><polygon class="cls-4" points="262.21 232.85 202.76 164.67 159.04 157.3 159.23 194.63 219.3 263.48 262.21 232.85"/><polygon class="cls-6" points="236.28 196.13 205.72 161.1 159.04 157.3 155.88 196.13 190.6 235.9 236.28 196.13"/><circle class="cls-3" cx="249.26" cy="253.13" r="41.23" transform="matrix(0.08, -1, 1, 0.08, -23.27, 481.01)"/><path class="cls-33" d="M267.81,235c-2.42-10.14-13.61-15.37-25-11.68s-18.63,14.89-16.21,25,13.61,15.37,25,11.68S270.23,245.17,267.81,235Z"/><path class="cls-33" d="M317.65,282.15a6.09,6.09,0,0,0,.61-8.56L276.6,225.72c-3.8-4.37-13.07-7.78-17.44-4h0a10.54,10.54,0,0,0-1.05,14.85l37,42.4C301.27,286.09,312.27,286.82,317.65,282.15Z"/><path class="cls-24" d="M337.25,466.42l61.91-53.9A29,29,0,0,0,402,371.73L308.92,264.85A29,29,0,0,0,268.14,262l-61.91,53.9a29,29,0,0,0-2.82,40.78L296.46,463.6A29,29,0,0,0,337.25,466.42Z"/><path class="cls-14" d="M312.27,466l89.89-78.27a.42.42,0,0,0,0-.59L294.81,263.77a.42.42,0,0,0-.59,0L204.32,342a.42.42,0,0,0,0,.59L311.67,465.94A.42.42,0,0,0,312.27,466Z"/><path class="cls-9" d="M310.73,448.74l74.57-64.92a.35.35,0,0,0,0-.49L296.25,281a.35.35,0,0,0-.49,0l-74.57,64.92a.35.35,0,0,0,0,.49L310.24,448.7A.35.35,0,0,0,310.73,448.74Z"/><circle class="cls-29" cx="347.46" cy="382.15" r="13.34" transform="translate(-165.53 322.1) rotate(-41.05)"/><path class="cls-16" d="M336.32,386.43a11.93,11.93,0,1,1,15.42,6.85l1,2.62a14.74,14.74,0,1,0-14.26-2.05l1.71-2.23A11.88,11.88,0,0,1,336.32,386.43Z"/><circle class="cls-29" cx="314.42" cy="410.91" r="13.34" transform="translate(-192.54 307.47) rotate(-41.04)"/><path class="cls-13" d="M303.61,416a11.94,11.94,0,1,1,20.1,2.45l2.18,1.76a14.74,14.74,0,1,0-24.83-3Z"/><path class="cls-16" d="M346.7,383.72l-3.86-4.43A1.61,1.61,0,0,1,343,377h0a1.61,1.61,0,0,1,2.27.16l3.86,4.43V380a1.61,1.61,0,0,1,1.61-1.61h0a1.61,1.61,0,0,1,1.61,1.61l0,6.17c0,1-.59,1.49-1.42,1.37l-6.24-.86a1.61,1.61,0,0,1-1.37-1.81h0a1.61,1.61,0,0,1,1.81-1.37Z"/><path class="cls-13" d="M315.19,409.34l3.86,4.43a1.61,1.61,0,0,1-.16,2.27h0a1.61,1.61,0,0,1-2.27-.16l-3.86-4.43v1.61a1.61,1.61,0,0,1-1.61,1.61h0a1.61,1.61,0,0,1-1.61-1.61l0-6.17c0-1,.58-1.49,1.42-1.37l6.24.86a1.62,1.62,0,0,1,1.37,1.81h0a1.61,1.61,0,0,1-1.81,1.37Z"/><circle class="cls-29" cx="320.49" cy="351.51" r="13.34" transform="translate(-152.04 296.85) rotate(-41.04)"/><path class="cls-7" d="M309.35,355.79a11.93,11.93,0,1,1,15.42,6.85l1,2.62a14.74,14.74,0,1,0-14.26-2.05l1.71-2.23A11.87,11.87,0,0,1,309.35,355.79Z"/><circle class="cls-29" cx="287.45" cy="380.27" r="13.34" transform="translate(-179.05 282.23) rotate(-41.04)"/><path class="cls-17" d="M276.64,385.32a11.94,11.94,0,1,1,20.1,2.45l2.18,1.77a14.74,14.74,0,1,0-24.83-3Z"/><path class="cls-7" d="M319.73,353.08l-3.86-4.43a1.61,1.61,0,0,1,.16-2.27h0a1.61,1.61,0,0,1,2.27.16l3.86,4.43v-1.61a1.61,1.61,0,0,1,1.61-1.61h0a1.61,1.61,0,0,1,1.61,1.61l0,6.17c0,1-.59,1.49-1.42,1.37L317.7,356a1.61,1.61,0,0,1-1.37-1.81h0a1.61,1.61,0,0,1,1.81-1.37Z"/><path class="cls-17" d="M288.22,378.7l3.86,4.43a1.61,1.61,0,0,1-.16,2.27h0a1.61,1.61,0,0,1-2.27-.16l-3.86-4.43v1.61a1.61,1.61,0,0,1-1.61,1.61h0a1.61,1.61,0,0,1-1.61-1.61l0-6.17c0-1,.59-1.49,1.42-1.37l6.24.86a1.62,1.62,0,0,1,1.37,1.81h0a1.61,1.61,0,0,1-1.81,1.37Z"/><circle class="cls-29" cx="295.24" cy="322.5" r="13.34" transform="translate(-139.2 273.14) rotate(-41.04)"/><path class="cls-13" d="M284.21,327.74a11.94,11.94,0,1,1,20.1,2.45l2.18,1.77a14.74,14.74,0,1,0-24.82-3Z"/><path class="cls-13" d="M296,320.93l3.86,4.43a1.61,1.61,0,0,1-.16,2.27h0a1.61,1.61,0,0,1-2.27-.16L293.58,323v1.61a1.61,1.61,0,0,1-1.61,1.61h0a1.61,1.61,0,0,1-1.61-1.61l0-6.17c0-1,.59-1.49,1.42-1.37L298,318a1.61,1.61,0,0,1,1.37,1.81h0a1.61,1.61,0,0,1-1.81,1.37Z"/><rect class="cls-38" x="252.76" y="356.67" width="28.19" height="1.78" transform="translate(-169.2 263.13) rotate(-41.05)"/><rect class="cls-38" x="250.19" y="353.72" width="28.19" height="1.78" transform="translate(-167.89 260.71) rotate(-41.05)"/><rect class="cls-38" x="247.62" y="350.76" width="28.19" height="1.78" transform="matrix(0.75, -0.66, 0.66, 0.75, -166.58, 258.29)"/><rect class="cls-38" x="245.05" y="347.81" width="28.19" height="1.78" transform="translate(-165.27 255.88) rotate(-41.04)"/><rect class="cls-38" x="253.85" y="340.6" width="15.22" height="1.78" transform="translate(-159.97 255.63) rotate(-41.05)"/><path class="cls-10" d="M353.39,445.82l23.15-20.15a1.52,1.52,0,0,0,.15-2.13h0a1.52,1.52,0,0,0-2.13-.15L351.4,443.54a1.52,1.52,0,0,0-.15,2.13h0A1.52,1.52,0,0,0,353.39,445.82Z"/><circle class="cls-11" cx="248.86" cy="296.09" r="4.83" transform="translate(-137.7 309.23) rotate(-51.9)"/><path class="cls-4" d="M323.83,276.1l-45.18-51.9c-3.8-4.37-13.06-7.78-17.44-4h0a10.54,10.54,0,0,0-1.05,14.85l35.47,40.67C306,287.59,320.66,279.47,323.83,276.1Z"/><path class="cls-4" d="M270.41,229.85c-2.74-9.94-15.05-14.45-27.5-10.08s-20.32,16-17.58,25.91,15.05,14.45,27.5,10.08S273.15,239.79,270.41,229.85Z"/><polygon class="cls-26" points="200.74 297.49 156.37 239.1 101.09 231.69 99.63 251.29 154.94 324.03 200.74 297.49"/><polygon class="cls-4" points="151.23 317.25 91.22 248.7 90.72 231.06 152.99 239.07 187.99 279.07 151.23 317.25"/><polygon class="cls-6" points="130.56 300.95 93.99 258.3 93.37 230.66 158.03 239.33 176.55 260.91 130.56 300.95"/><polygon class="cls-25" points="113.29 283.91 0 153.63 0 56.5 161.36 242.05 113.29 283.91"/><polygon class="cls-18" points="113.29 283.91 0 153.63 0 104.21 137.74 262.61 113.29 283.91"/><path class="cls-33" d="M273,313.59l-49-26.91c-5-2.73-26.56-8.17-29.69-3.43s10,16,15.1,18.58l38.51,19C264,328.82,270.21,319.08,273,313.59Z"/><path class="cls-4" d="M287.13,375.74l-38.93-33c2.25,8.32-8.78,15.16-16.48,10,3.48,8.21-6.37,15.5-14.26,12.21,2,8.1-9.33,14.49-16.57,8.4l-33.15-27.91c-9.31-7.84-17-22.95-18.44-30.92-4.17-23.62,22.88-37.65,35.63-36,9.94,1.29,17.17,1.11,22.21,5.23l93.31,76.55C312.26,370,296.62,383.95,287.13,375.74Z"/><path class="cls-33" d="M233.25,353.61v-.77l2,1.43a10.44,10.44,0,0,1-2-.66Zm0-22.14v-.31c3.62,2.74,11.28,8.56,15,11.59-.08-.06,0,0,.06.24a8.3,8.3,0,0,1,.23,2.19C243.76,341,236.67,334.58,233.25,331.46Zm-27.8,24.24s6.46,5.66,12.23,10.67a8.06,8.06,0,0,0-.21-1.39,10.46,10.46,0,0,0,2.11.63c-6.35-4.52-14.13-9.9-14.13-9.9Zm27.8-24.55v.31l-2-1.81,2,1.49Zm0,21.69v.77a10.55,10.55,0,0,1-1.52-.84,9.24,9.24,0,0,1,.52,1.62c-6.43-5.48-14.36-12.31-14.36-12.31S226.71,348.15,233.25,352.84Z"/><polygon class="cls-25" points="225.21 180.52 67.81 0 0 0 0 21.58 175.96 223.39 225.21 180.52"/><polygon class="cls-18" points="200.59 201.95 24.25 0 0 0 0 21.58 175.96 223.39 200.59 201.95"/><path class="cls-39" d="M243.69,90.82l32.46,22.32,4.87,22-22.26,3.31-17.55-12.07V111.05a3.31,3.31,0,0,0,0-6.62v-10Zm-2.47,35.54L226.3,116.11l14.92-21.69v10a3.31,3.31,0,1,0,0,6.62Z"/><path class="cls-9" d="M257.91,130.15v-2.61a7.9,7.9,0,0,0,1-1.19,4.56,4.56,0,0,0,1-2.05.93.93,0,0,0-.43-.81.91.91,0,0,0-.91-.11,1.94,1.94,0,0,0-.59.41v-2.52a3.63,3.63,0,0,1,2.56.71,3.55,3.55,0,0,1,1.65,2.48,6.26,6.26,0,0,1-3.87,5.62l-.34.06Zm0-11.41v-2.43l5.72-3.13,1.94,1.34Zm-4.39-11.46a4.06,4.06,0,0,1,4.22,3.19,6.27,6.27,0,0,1-3.86,5.62l-.36.06v-2.59a7.94,7.94,0,0,0,1-1.21,4.44,4.44,0,0,0,1-2,1,1,0,0,0-1.33-.93,2,2,0,0,0-.6.42v-2.52Zm4.39,9v2.43l-4.39,2.42v-2.45l4.39-2.4Zm0,5v2.52a7.75,7.75,0,0,0-1,1.22,4.38,4.38,0,0,0-.95,2.05.93.93,0,0,0,.42.81.91.91,0,0,0,.9.11,2,2,0,0,0,.62-.44v2.61A4,4,0,0,1,253.7,127a6.26,6.26,0,0,1,3.87-5.62Zm-7.49-11.69a4.94,4.94,0,0,1,2.76-2.24l.34-.06v2.52a7.69,7.69,0,0,0-1,1.21,4.43,4.43,0,0,0-1,2.06,1,1,0,0,0,1.34.92,2,2,0,0,0,.6-.42v2.59a4.07,4.07,0,0,1-4.2-3.19,4.94,4.94,0,0,1,1.1-3.38Zm3.1,9.14v2.45l-5.63,3.1-2-1.37Z"/><circle class="cls-12" cx="498.35" cy="693.92" r="25.58"/><path class="cls-9" d="M498.52,678.91c-9.13,0-16.54,6.39-16.54,14.27a13.74,13.74,0,0,0,6.78,11.52l-2.33,5.89,5.71-4.24a18.77,18.77,0,0,0,6.38,1.1c9.13,0,16.53-6.39,16.53-14.27S507.65,678.91,498.52,678.91Z"/><circle class="cls-1" cx="491.29" cy="693.45" r="2.24"/><circle class="cls-1" cx="498.52" cy="693.45" r="2.24"/><circle class="cls-1" cx="505.75" cy="693.45" r="2.24"/><polygon class="cls-40" points="96.97 433.43 70.02 452.88 43.07 433.43 70.02 413.97 96.97 433.43"/><rect class="cls-41" x="50.44" y="417.39" width="39.18" height="47.85"/><rect class="cls-42" x="56.55" y="423.93" width="11.19" height="2.26"/><rect class="cls-42" x="56.44" y="428.31" width="27.17" height="2.26"/><rect class="cls-42" x="56.44" y="432.52" width="27.17" height="2.26"/><rect class="cls-42" x="56.44" y="436.72" width="27.17" height="2.26"/><rect class="cls-42" x="56.44" y="440.93" width="27.17" height="2.26"/><rect class="cls-42" x="56.44" y="445.13" width="27.17" height="2.26"/><rect class="cls-42" x="56.44" y="449.34" width="27.17" height="2.26"/><polygon class="cls-7" points="43.07 465.24 96.97 465.24 96.97 433.43 70.02 452.88 43.07 433.43 43.07 465.24"/><polygon class="cls-6" points="43.07 465.24 96.97 465.24 74.94 449.33 65.11 449.33 65.11 449.33 43.07 465.24"/><path class="cls-43" d="M170.4,412.37l1.17-2.19-4.63-2.47-1.17,2.2a14.32,14.32,0,0,0-4.34-.67V413a10.62,10.62,0,0,1,3.09,20.78h0a10.6,10.6,0,0,1-3.09.46V438a14.44,14.44,0,0,0,1.6-.09l.72,2.38,5-1.53-.72-2.38a14.31,14.31,0,0,0,4.61-3.79l2.2,1.17,2.47-4.63-2.2-1.17a14.3,14.3,0,0,0,.58-5.94l2.38-.72-1.53-5-2.38.72A14.32,14.32,0,0,0,170.4,412.37Zm-9-3.14a14.26,14.26,0,0,0-1.6.09l-.72-2.38-5,1.53.72,2.38a14.3,14.3,0,0,0-4.61,3.79L148,413.46l-2.47,4.63,2.19,1.17a14.31,14.31,0,0,0-.58,5.94l-2.38.72,1.53,5,2.38-.72a14.33,14.33,0,0,0,3.79,4.61l-1.17,2.2,4.63,2.47,1.17-2.19a14.33,14.33,0,0,0,4.34.67v-3.76a10.62,10.62,0,0,1,0-21.24Z"/><path class="cls-43" d="M154.69,390.31l.82-1.53L152.28,387l-.82,1.53a10,10,0,0,0-3-.47v2.63a7.42,7.42,0,0,1,2.16,14.52h0a7.43,7.43,0,0,1-2.16.32v2.63a9.79,9.79,0,0,0,1.12-.06l.51,1.66,3.51-1.07-.51-1.66a10,10,0,0,0,3.22-2.65l1.53.82,1.73-3.24-1.53-.82a10,10,0,0,0,.41-4.15l1.66-.51L159,393l-1.66.51A10,10,0,0,0,154.69,390.31Zm-6.27-2.2a9.89,9.89,0,0,0-1.12.06l-.51-1.66-3.51,1.07.51,1.66a10,10,0,0,0-3.22,2.65l-1.53-.82-1.73,3.24,1.53.82a10,10,0,0,0-.41,4.15l-1.66.51,1.07,3.51,1.66-.51a10,10,0,0,0,2.65,3.22l-.82,1.53,3.24,1.73.82-1.53a10,10,0,0,0,3,.47v-2.63a7.42,7.42,0,0,1,0-14.84Z"/><path class="cls-43" d="M714.77,422.76a14.26,14.26,0,0,1,1.6.09l.72-2.38,5,1.53-.72,2.38a14.3,14.3,0,0,1,4.61,3.79L728.2,427l2.47,4.63-2.2,1.17a14.29,14.29,0,0,1,.58,5.94l2.38.72-1.53,5-2.38-.72a14.33,14.33,0,0,1-3.79,4.61l1.17,2.2L720.28,453l-1.17-2.19a14.33,14.33,0,0,1-4.34.67v-3.76a10.62,10.62,0,0,0,0-21.24Zm-9,3.14-1.17-2.19,4.63-2.47,1.17,2.2a14.32,14.32,0,0,1,4.34-.67v3.76a10.62,10.62,0,0,0-3.09,20.78h0a10.6,10.6,0,0,0,3.09.46v3.76a14.23,14.23,0,0,1-1.6-.09l-.72,2.38-5-1.53.72-2.38a14.3,14.3,0,0,1-4.61-3.79l-2.2,1.17-2.47-4.63,2.2-1.17a14.29,14.29,0,0,1-.58-5.94l-2.38-.72,1.53-5,2.38.72A14.32,14.32,0,0,1,705.8,425.9Z"/><path class="cls-43" d="M727.77,401.65a10,10,0,0,1,1.12.06l.51-1.66,3.51,1.07-.51,1.66a10,10,0,0,1,3.22,2.65l1.53-.82,1.73,3.24-1.53.82a10,10,0,0,1,.41,4.15l1.66.51-1.07,3.51-1.66-.51a10,10,0,0,1-2.65,3.22l.82,1.53-3.24,1.73-.82-1.53a10,10,0,0,1-3,.47v-2.63a7.42,7.42,0,0,0,0-14.84Zm-6.27,2.2-.82-1.53,3.24-1.73.82,1.53a10,10,0,0,1,3-.47v2.63a7.42,7.42,0,0,0-2.16,14.52h0a7.43,7.43,0,0,0,2.16.32v2.63a9.78,9.78,0,0,1-1.12-.06l-.51,1.66-3.51-1.07.51-1.66a10,10,0,0,1-3.22-2.65l-1.53.82-1.73-3.24,1.53-.82a10,10,0,0,1-.41-4.15l-1.66-.5,1.07-3.51,1.66.5A10,10,0,0,1,721.5,403.84Z"/><path class="cls-34" d="M413.71,121.92a6.54,6.54,0,0,1,0,11.33V121.92Zm0-7.3a13.37,13.37,0,0,1,10.09,13h4a17.35,17.35,0,0,0-14.07-17v4.07Zm0-9.84a23,23,0,0,1,19.76,22.8h3.7a26.73,26.73,0,0,0-23.46-26.53ZM410.44,121a6.51,6.51,0,0,1,3.27.88v11.33a6.54,6.54,0,1,1-3.27-12.2Zm3.27-20v3.73a23.21,23.21,0,0,0-3.27-.23v-3.7a26.86,26.86,0,0,1,3.27.2Zm0,9.49v4.07a13.38,13.38,0,0,0-3.27-.4v-4A17.41,17.41,0,0,1,413.71,110.55Z"/><rect class="cls-29" x="75.6" y="332.57" width="33.05" height="3.85"/><path class="cls-29" d="M103.67,353.79h5V340.37h-5v6.57l2.44,2.44-2.44,2.44Zm-28.07,0h28.07v-2h0l-2.44-2.44,2.44-2.44h0v-6.57H75.6Z"/><rect class="cls-44" x="665.22" y="566.52" width="30.21" height="30.21"/><rect class="cls-29" x="678.44" y="566.52" width="3.79" height="30.21"/><path class="cls-29" d="M688.52,555.8c2.46-1.31,4.56-1.53,6.08-1.08a3.9,3.9,0,0,1,2.85,3,5.38,5.38,0,0,1-1.26,4.37c-1.34,1.71-3.82,3.35-7.67,4.31v-2.21a11.18,11.18,0,0,0,6-3.43,3.28,3.28,0,0,0,.85-2.6,1.81,1.81,0,0,0-1.35-1.36c-1.24-.36-3.12,0-5.47,1.51ZM688.17,575a1.08,1.08,0,0,1-2.08.58,24.44,24.44,0,0,0-4.53-7.92l-.36-.45h-1.89l-.14.18a27.9,27.9,0,0,0-4.63,8.22,1.08,1.08,0,1,1-2.06-.64,28.46,28.46,0,0,1,4.25-7.92,26.24,26.24,0,0,1-4.47-.82V564a24.76,24.76,0,0,0,6,1l.47-.56a65,65,0,0,0-6.23-5.82l-.29-.23v-2.64A16.81,16.81,0,0,1,673.9,557a67.55,67.55,0,0,1,6.3,5.87,48.11,48.11,0,0,1,5.76-5.38,18,18,0,0,1,2.55-1.67v2.5q-.6.39-1.23.88a46,46,0,0,0-5.62,5.27l.53.62a27.87,27.87,0,0,0,6.33-.89v2.21a28.91,28.91,0,0,1-4.66.74A25.13,25.13,0,0,1,688.17,575Zm-15.92-8.77c-3.68-1-6.05-2.74-7.35-4.5a5.79,5.79,0,0,1-1.25-4.4,3.67,3.67,0,0,1,2.74-3c1.48-.4,3.5-.08,5.87,1.41v2.64c-2.32-1.81-4.14-2.29-5.3-2a1.58,1.58,0,0,0-1.18,1.29,3.68,3.68,0,0,0,.86,2.73,10.85,10.85,0,0,0,5.62,3.55Z"/><rect class="cls-29" x="665.22" y="579.73" width="30.21" height="3.79"/><path class="cls-19" d="M222.48,428.2a.66.66,0,1,0-1,.87l.87,1a.66.66,0,0,0,1.09-.73.66.66,0,0,0-.09-.14l-.87-1Zm30.83,37.43a.66.66,0,0,0,1.09-.73.67.67,0,0,0-.09-.14l-.54-.62a.66.66,0,0,0-1.09.73.69.69,0,0,0,.09.14l.54.62ZM248.43,460a.66.66,0,1,0,1-.87l-.87-1a.66.66,0,0,0-1.09.73.64.64,0,0,0,.09.14l.87,1Zm-5.22-6a.66.66,0,1,0,1-.87l-.87-1a.66.66,0,0,0-1.09.73.69.69,0,0,0,.09.14l.87,1ZM238,448a.66.66,0,1,0,1-.87l-.87-1a.66.66,0,0,0-1.09.73.68.68,0,0,0,.09.14l.87,1Zm-5.22-6a.66.66,0,0,0,1.09-.73.69.69,0,0,0-.09-.14l-.87-1a.66.66,0,1,0-1,.87l.87,1Zm-5.22-6a.66.66,0,1,0,1-.87l-.87-1a.66.66,0,0,0-1,.87Z"/><polygon class="cls-19" points="213.84 427.82 211.37 416.44 222.3 420.45 213.84 427.82"/><polygon class="cls-19" points="253.5 473.38 264.43 477.39 261.96 466.01 253.5 473.38"/><path class="cls-19" d="M332.1,133.27a.66.66,0,0,0,.73,1.09l.14-.09,1-.87a.66.66,0,0,0-.73-1.09l-.14.09-1,.87Zm37.43-30.83a.66.66,0,0,0-.73-1.09l-.14.09L368,102a.66.66,0,0,0,.73,1.09l.14-.09.62-.54Zm-5.61,4.88a.66.66,0,0,0-.73-1.09l-.14.09-1,.87a.66.66,0,0,0,.73,1.09l.14-.09,1-.87Zm-6,5.22a.66.66,0,0,0-.73-1.09l-.14.09-1,.87a.66.66,0,0,0,.73,1.09l.14-.09,1-.87Zm-6,5.22a.66.66,0,0,0-.73-1.09l-.14.09-1,.87a.66.66,0,0,0,.73,1.09l.14-.09,1-.87Zm-6,5.22a.66.66,0,0,0-.73-1.09l-.14.09-1,.87a.66.66,0,0,0,.73,1.09l.14-.09,1-.87Zm-6,5.22a.66.66,0,0,0-.73-1.09l-.14.09-1,.87a.66.66,0,0,0,.73,1.09l.14-.09Z"/><polygon class="cls-19" points="331.72 141.92 320.34 144.39 324.35 133.46 331.72 141.92"/><polygon class="cls-19" points="377.27 102.26 381.28 91.33 369.9 93.79 377.27 102.26"/><path class="cls-34" d="M250.52,56.44c4.36.89,7.61,4.21,7.61,8.13h0c0,4-3.38,8.2-8,8.2H229.91a8.59,8.59,0,0,1-8.73-8.2h0c0-3.92,3.26-7.24,7.61-8.13,0-.08,0-.16,0-.24,0-5,4.86-9.13,10.87-9.13s10.87,4.09,10.87,9.13C250.52,56.28,250.52,56.36,250.52,56.44Z"/><path class="cls-19" d="M588,484.44a.66.66,0,0,0-1.09.73.68.68,0,0,0,.09.14l.87,1a.66.66,0,0,0,1.09-.73.68.68,0,0,0-.09-.14l-.87-1Zm30.83,37.43a.66.66,0,0,0,1.09-.73.62.62,0,0,0-.09-.14l-.54-.62a.66.66,0,0,0-1.09.73.69.69,0,0,0,.09.14l.54.62ZM614,516.26a.66.66,0,0,0,1.09-.73.69.69,0,0,0-.09-.14l-.87-1a.66.66,0,0,0-1,.87l.87,1Zm-5.22-6a.66.66,0,0,0,1.09-.73.73.73,0,0,0-.09-.14l-.87-1a.66.66,0,0,0-1.09.73.65.65,0,0,0,.09.14l.87,1Zm-5.22-6a.66.66,0,1,0,1-.87l-.87-1a.66.66,0,0,0-1.09.73.7.7,0,0,0,.09.14l.87,1Zm-5.22-6a.66.66,0,0,0,1.09-.73.72.72,0,0,0-.09-.14l-.87-1a.66.66,0,0,0-1.09.73.74.74,0,0,0,.09.14l.87,1Zm-5.22-6a.66.66,0,0,0,1.09-.73.68.68,0,0,0-.09-.14l-.87-1a.66.66,0,1,0-1,.87Z"/><polygon class="cls-19" points="579.4 484.06 576.94 472.68 587.87 476.69 579.4 484.06"/><polygon class="cls-19" points="619.06 529.61 630 533.62 627.53 522.24 619.06 529.61"/><path class="cls-43" d="M340.84,737.53a14.25,14.25,0,0,1,1.6.09l.72-2.38,5,1.53-.72,2.38a14.3,14.3,0,0,1,4.61,3.79l2.19-1.17,2.47,4.63-2.19,1.17a14.31,14.31,0,0,1,.58,5.94l2.38.72-1.53,5-2.38-.72a14.32,14.32,0,0,1-3.79,4.61l1.17,2.2-4.63,2.47-1.17-2.2a14.33,14.33,0,0,1-4.34.67v-3.76a10.62,10.62,0,0,0,0-21.24Zm-9,3.14-1.17-2.2,4.63-2.47,1.17,2.19a14.32,14.32,0,0,1,4.34-.67v3.76a10.62,10.62,0,0,0-3.09,20.78h0a10.6,10.6,0,0,0,3.09.46v3.76a14.23,14.23,0,0,1-1.6-.09l-.72,2.38-5-1.53.72-2.38a14.29,14.29,0,0,1-4.61-3.79l-2.2,1.17-2.47-4.63,2.2-1.17a14.29,14.29,0,0,1-.58-5.94l-2.38-.72,1.53-5,2.38.72A14.3,14.3,0,0,1,331.87,740.68Z"/><path class="cls-43" d="M353.84,716.42a10,10,0,0,1,1.12.06l.51-1.66,3.51,1.07-.51,1.66a10,10,0,0,1,3.22,2.65l1.53-.82,1.73,3.24-1.53.82a10,10,0,0,1,.41,4.15l1.66.51-1.07,3.51-1.66-.51a10,10,0,0,1-2.65,3.22l.82,1.53-3.24,1.73-.82-1.53a10,10,0,0,1-3,.47v-2.63a7.42,7.42,0,0,0,0-14.84Zm-6.27,2.2-.82-1.53,3.24-1.73.82,1.53a10,10,0,0,1,3-.47V719a7.42,7.42,0,0,0-2.16,14.52h0a7.39,7.39,0,0,0,2.16.32v2.63a10.27,10.27,0,0,1-1.12-.06l-.51,1.66L348.71,737l.51-1.66a10,10,0,0,1-3.22-2.65l-1.53.82-1.73-3.24,1.53-.82a10,10,0,0,1-.41-4.15l-1.66-.51,1.07-3.51,1.66.51A10,10,0,0,1,347.57,718.62Z"/><path class="cls-19" d="M412.19,705.38a.66.66,0,0,0,.73,1.09l.14-.09,1-.87a.66.66,0,0,0-.73-1.09l-.14.09-1,.87Zm37.43-30.83a.66.66,0,0,0-.73-1.09l-.14.09-.62.54a.66.66,0,0,0,.73,1.09l.14-.09.62-.54ZM444,679.43a.66.66,0,0,0-.73-1.09l-.14.09-1,.87a.66.66,0,0,0,.73,1.09l.14-.09,1-.87Zm-6,5.22a.66.66,0,0,0-.73-1.09l-.14.09-1,.87a.66.66,0,0,0,.73,1.09l.14-.09,1-.87Zm-6,5.22a.66.66,0,0,0-.73-1.09l-.14.09-1,.87a.66.66,0,0,0,.73,1.09l.14-.09,1-.87Zm-6,5.22a.66.66,0,0,0-.73-1.09l-.14.09-1,.87a.66.66,0,0,0,.73,1.09l.14-.09,1-.87Zm-6,5.22a.66.66,0,0,0-.73-1.09l-.14.09-1,.87a.66.66,0,0,0,.73,1.09l.14-.09Z"/><polygon class="cls-19" points="411.81 714.02 400.43 716.49 404.44 705.56 411.81 714.02"/><polygon class="cls-19" points="457.37 674.36 461.38 663.43 450 665.9 457.37 674.36"/></g></g></svg>