<svg xmlns="http://www.w3.org/2000/svg" viewBox="0 0 598 741.64"><defs><style>.cls-1,.cls-22{fill:#1a1a1a;opacity:0.2;}.cls-1,.cls-10,.cls-11,.cls-12,.cls-13,.cls-14,.cls-15,.cls-16,.cls-17,.cls-18,.cls-21,.cls-3,.cls-5,.cls-6,.cls-9{fill-rule:evenodd;}.cls-2,.cls-6{fill:#fff;}.cls-3,.cls-4{fill:#ccc;}.cls-5{fill:#b3b3b3;}.cls-7{fill:none;stroke:#fff;stroke-miterlimit:22.93;stroke-width:2.88px;stroke-dasharray:2.88 8.64;}.cls-8{fill:#d4ebff;}.cls-9{fill:#1e4b73;}.cls-10{fill:#f06358;}.cls-11{fill:#f58982;}.cls-12,.cls-23{fill:#346896;}.cls-13,.cls-26{fill:#ffd500;}.cls-14,.cls-25{fill:#f80;}.cls-15{fill:#ffd4a3;}.cls-16,.cls-24{fill:#ffc685;}.cls-17,.cls-27{fill:#d4453b;}.cls-18,.cls-19,.cls-28{fill:#5896cc;}.cls-20,.cls-21{fill:#ebb588;}.cls-28{font-size:9.34px;font-family:Arial-BoldMT, Arial;font-weight:700;}</style></defs><title>Recurso 1</title><g id="Capa_2" data-name="Capa 2"><g id="Objects"><path class="cls-1" d="M549,526.41a51.23,51.23,0,0,1,10.25-1.23c9.52-.19,16,2.86,19.28,7.14a11.53,11.53,0,0,1,2.4,6.52,12.37,12.37,0,0,1-1.83,6.88C575.95,551,568.68,555.64,557,557a50.54,50.54,0,0,1-8,.27v-2.66a48.24,48.24,0,0,0,7.73-.26c10.73-1.27,17.32-5.36,20.08-10a9.78,9.78,0,0,0,1.47-5.42,8.9,8.9,0,0,0-1.87-5c-2.77-3.66-8.53-6.25-17.11-6.09A48.45,48.45,0,0,0,549,529.14ZM496.9,585.08h0c16.35-4,34.1,9.66,40,31.15s-2.71,42.81-19.23,47.32-34.82-9.8-40.6-31,2-41.07,17.25-46.68c1.15-12.2,12.91-28.48,21-37.19q-1.75-.74-3.52-1.54c-16.64-7.5-34.33-18.67-51.15-31.9v166a6.6,6.6,0,0,1-6.58,6.58h-141v-196H425.91v-3.35H313.13V367.42H477.89c8.87,0,13.43,3.82,10.12,16.19L459.9,488.48H440.33v3.35H454.1a6.59,6.59,0,0,1,6.58,6.58v13.45c17.13,13.67,35.25,25.21,52.24,32.87q2.11,1,4.2,1.82c7.38-8.61,16.46-15.24,26.8-18.71a51.83,51.83,0,0,1,5.08-1.42v2.73q-2.15.51-4.23,1.21c-9.6,3.21-18.07,9.31-25,17.24,10.53,4.16,20.47,6.65,29.28,7v2.66c-9.38-.39-19.95-3.08-31.09-7.55C505.83,564.58,500.36,573.33,496.9,585.08ZM313.13,687.84h-141a6.6,6.6,0,0,1-6.57-6.58V498.4a6.59,6.59,0,0,1,6.57-6.58h13.77v-3.35H165.59L139,385.23c-3.9-15.12-1.47-17.8,8.62-17.8H313.13V488.48H200.34v3.35H313.13Z"/><path class="cls-2" d="M534.31,513.84a51.24,51.24,0,0,1,10.25-1.23c9.52-.19,16,2.86,19.28,7.14a11.54,11.54,0,0,1,2.4,6.52,12.38,12.38,0,0,1-1.83,6.88c-3.14,5.28-10.41,9.92-22.06,11.29a50.55,50.55,0,0,1-8,.27V542a48.24,48.24,0,0,0,7.73-.26c10.72-1.27,17.32-5.36,20.08-10a9.78,9.78,0,0,0,1.47-5.42,8.91,8.91,0,0,0-1.87-5c-2.77-3.65-8.53-6.25-17.11-6.09a48.44,48.44,0,0,0-10.29,1.31Zm-90.87-16.63c17.88,14.57,37,26.89,54.8,34.93q2.11,1,4.2,1.82c7.38-8.61,16.46-15.24,26.8-18.71a51.51,51.51,0,0,1,5.08-1.42v2.73q-2.15.51-4.23,1.21C520.48,521,512,527.09,505,535c10.53,4.16,20.47,6.65,29.28,7v2.66c-9.38-.39-19.95-3.08-31.09-7.55a78.73,78.73,0,0,0-6.77,9.77,89.68,89.68,0,0,0-12.23,46.43,73.35,73.35,0,0,0,3.66,21.85l-2.52.84a76.08,76.08,0,0,1-3.79-22.65,92.37,92.37,0,0,1,12.6-47.82,82,82,0,0,1,6.5-9.48q-1.75-.74-3.52-1.54c-18-8.13-37.32-20.58-55.38-35.29Z"/><path class="cls-3" d="M132.9,354.84H463.2c8.87,0,13.43,3.82,10.12,16.19L445.21,475.9H150.9L124.28,372.65C120.38,357.52,122.81,354.84,132.9,354.84Z"/><ellipse class="cls-4" cx="496.77" cy="619.11" rx="31.01" ry="40.58" transform="matrix(0.96, -0.26, 0.26, 0.96, -145.51, 152.68)"/><ellipse class="cls-2" cx="495.55" cy="614.64" rx="25.68" ry="33.61" transform="translate(-144.38 152.21) rotate(-15.27)"/><path class="cls-5" d="M486.08,580l.64-.16,5.58,20.44-1.27.35-5.58-20.44Z"/><path class="cls-5" d="M485.2,585.88l4.64-1.27a2,2,0,0,1,2.41,1.38l5.76,21.1a2,2,0,0,1-1.38,2.41L492,610.77a2,2,0,0,1-2.41-1.38l-5.76-21.1A2,2,0,0,1,485.2,585.88Z"/><path class="cls-6" d="M486.65,587.08l2.55-.7a1.08,1.08,0,0,1,1.33.76L495.95,607a1.08,1.08,0,0,1-.76,1.33l-2.55.7a1.09,1.09,0,0,1-1.33-.76l-5.42-19.84A1.09,1.09,0,0,1,486.65,587.08Z"/><path class="cls-6" d="M131,357.4H466.19a3.92,3.92,0,0,1,3.91,3.91h0a3.92,3.92,0,0,1-3.91,3.91H131a3.92,3.92,0,0,1-3.91-3.91h0A3.92,3.92,0,0,1,131,357.4Z"/><line class="cls-7" x1="555.04" y1="336.43" x2="555.04" y2="217.51"/><line class="cls-7" x1="300.3" y1="70.33" x2="300.3" y2="371.5"/><line class="cls-7" x1="45.93" y1="336.43" x2="45.93" y2="177.11"/><line class="cls-7" x1="45.93" y1="150.53" x2="300.3" y2="84.81"/><line class="cls-7" x1="555.04" y1="183.41" x2="300.3" y2="84.81"/><line class="cls-7" x1="555.04" y1="336.43" x2="45.56" y2="336.43"/><path class="cls-1" d="M371.85,55.25a27.5,27.5,0,0,0-17.71,6.45,48.41,48.41,0,0,0-.74-7.47A46.83,46.83,0,0,0,352.15,49a47.67,47.67,0,0,0-45.69-34c-.66,0-1.32,0-2,.05a47.71,47.71,0,0,0-43.64,61.66,16.85,16.85,0,0,0,.38,33.71H371.85a27.55,27.55,0,0,0,0-55.11Z"/><path class="cls-8" d="M354.19,40.31a27.52,27.52,0,0,0-17.71,6.45,48.53,48.53,0,0,0-.74-7.47A47.09,47.09,0,0,0,334.48,34,47.68,47.68,0,0,0,288.79,0c-.66,0-1.32,0-2,.05a47.71,47.71,0,0,0-43.64,61.66,16.85,16.85,0,0,0,.38,33.71H354.19a27.55,27.55,0,0,0,0-55.11Z"/><rect class="cls-2" x="150.9" y="479.25" width="295.09" height="196.01" rx="6.58" ry="6.58"/><path class="cls-5" d="M170.28,479.25h16.34v9.34a1.54,1.54,0,0,1-1.54,1.54H171.81a1.54,1.54,0,0,1-1.54-1.54Z"/><path class="cls-5" d="M410.26,479.25h16.35v9.34a1.54,1.54,0,0,1-1.54,1.54H411.8a1.54,1.54,0,0,1-1.54-1.54Z"/><polygon class="cls-9" points="456.12 381.66 435.69 461.78 160.66 461.78 140.02 381.66 456.12 381.66"/><rect class="cls-2" x="171.25" y="470.78" width="14.41" height="16.54" rx="1.35" ry="1.35"/><rect class="cls-2" x="411.23" y="470.78" width="14.41" height="16.54" rx="1.35" ry="1.35"/><rect class="cls-4" x="415.39" y="505.37" width="12.87" height="10.53" rx="1.88" ry="1.88"/><rect class="cls-4" x="415.39" y="518.28" width="12.87" height="13.76" rx="2.3" ry="2.3"/><rect class="cls-4" x="415.39" y="534.42" width="12.87" height="13.76" rx="2.3" ry="2.3"/><rect class="cls-4" x="415.39" y="550.57" width="12.87" height="13.76" rx="2.3" ry="2.3"/><rect class="cls-4" x="415.39" y="566.71" width="12.87" height="13.76" rx="2.3" ry="2.3"/><rect class="cls-4" x="415.39" y="582.85" width="12.87" height="13.76" rx="2.3" ry="2.3"/><rect class="cls-4" x="399.31" y="505.37" width="12.87" height="10.53" rx="1.88" ry="1.88"/><rect class="cls-4" x="384.45" y="518.28" width="27.72" height="13.76" rx="2.46" ry="2.46"/><rect class="cls-4" x="394.92" y="534.42" width="17.26" height="13.76" rx="2.46" ry="2.46"/><rect class="cls-4" x="382.64" y="550.57" width="29.54" height="13.76" rx="2.46" ry="2.46"/><rect class="cls-4" x="399.31" y="566.71" width="12.87" height="13.76" rx="2.3" ry="2.3"/><rect class="cls-4" x="399.31" y="582.85" width="12.87" height="13.76" rx="2.3" ry="2.3"/><rect class="cls-4" x="384.45" y="505.37" width="11.64" height="10.53" rx="1.88" ry="1.88"/><rect class="cls-4" x="369.35" y="505.37" width="11.64" height="10.53" rx="1.88" ry="1.88"/><rect class="cls-4" x="354.25" y="505.37" width="11.64" height="10.53" rx="1.88" ry="1.88"/><rect class="cls-4" x="339.15" y="505.37" width="11.64" height="10.53" rx="1.88" ry="1.88"/><rect class="cls-4" x="324.05" y="505.37" width="11.64" height="10.53" rx="1.88" ry="1.88"/><rect class="cls-4" x="308.95" y="505.37" width="11.64" height="10.53" rx="1.88" ry="1.88"/><rect class="cls-4" x="293.85" y="505.37" width="11.64" height="10.53" rx="1.88" ry="1.88"/><rect class="cls-4" x="278.75" y="505.37" width="11.64" height="10.53" rx="1.88" ry="1.88"/><rect class="cls-4" x="263.65" y="505.37" width="11.64" height="10.53" rx="1.88" ry="1.88"/><rect class="cls-4" x="248.55" y="505.37" width="11.64" height="10.53" rx="1.88" ry="1.88"/><rect class="cls-4" x="233.46" y="505.37" width="11.64" height="10.53" rx="1.88" ry="1.88"/><rect class="cls-4" x="218.36" y="505.37" width="11.64" height="10.53" rx="1.88" ry="1.88"/><rect class="cls-4" x="203.26" y="505.37" width="11.64" height="10.53" rx="1.88" ry="1.88"/><rect class="cls-4" x="188.16" y="505.37" width="11.64" height="10.53" rx="1.88" ry="1.88"/><rect class="cls-4" x="171.2" y="505.37" width="12.87" height="10.53" rx="1.88" ry="1.88"/><rect class="cls-4" x="368.36" y="518.28" width="12.63" height="13.76" rx="2.26" ry="2.26"/><rect class="cls-4" x="351.98" y="518.28" width="12.63" height="13.76" rx="2.26" ry="2.26"/><path class="cls-4" d="M337.85,518.28H346a2.26,2.26,0,0,1,2.26,2.26v9.25A2.26,2.26,0,0,1,346,532h-8.12a2.25,2.25,0,0,1-2.25-2.25v-9.25A2.26,2.26,0,0,1,337.85,518.28Z"/><rect class="cls-4" x="319.21" y="518.28" width="12.63" height="13.76" rx="2.26" ry="2.26"/><rect class="cls-4" x="302.83" y="518.28" width="12.63" height="13.76" rx="2.26" ry="2.26"/><rect class="cls-4" x="286.45" y="518.28" width="12.63" height="13.76" rx="2.26" ry="2.26"/><rect class="cls-4" x="270.07" y="518.28" width="12.63" height="13.76" rx="2.26" ry="2.26"/><rect class="cls-4" x="253.69" y="518.28" width="12.63" height="13.76" rx="2.26" ry="2.26"/><rect class="cls-4" x="237.3" y="518.28" width="12.63" height="13.76" rx="2.26" ry="2.26"/><rect class="cls-4" x="220.92" y="518.28" width="12.63" height="13.76" rx="2.26" ry="2.26"/><rect class="cls-4" x="204.54" y="518.28" width="12.63" height="13.76" rx="2.26" ry="2.26"/><rect class="cls-4" x="188.16" y="518.28" width="12.63" height="13.76" rx="2.26" ry="2.26"/><rect class="cls-4" x="171.2" y="518.28" width="12.87" height="13.76" rx="2.3" ry="2.3"/><rect class="cls-4" x="171.2" y="534.42" width="21.93" height="13.76" rx="2.46" ry="2.46"/><rect class="cls-4" x="171.2" y="550.57" width="25.15" height="13.76" rx="2.46" ry="2.46"/><rect class="cls-4" x="171.2" y="566.71" width="33.92" height="13.76" rx="2.46" ry="2.46"/><rect class="cls-4" x="171.2" y="582.85" width="16.96" height="13.76" rx="2.46" ry="2.46"/><rect class="cls-4" x="195.18" y="534.42" width="13.52" height="13.76" rx="2.42" ry="2.42"/><rect class="cls-4" x="211.87" y="534.42" width="13.52" height="13.76" rx="2.42" ry="2.42"/><rect class="cls-4" x="228.56" y="534.42" width="13.52" height="13.76" rx="2.42" ry="2.42"/><rect class="cls-4" x="245.24" y="534.42" width="13.52" height="13.76" rx="2.42" ry="2.42"/><rect class="cls-4" x="261.93" y="534.42" width="13.52" height="13.76" rx="2.42" ry="2.42"/><rect class="cls-4" x="278.62" y="534.42" width="13.52" height="13.76" rx="2.42" ry="2.42"/><rect class="cls-4" x="295.31" y="534.42" width="13.52" height="13.76" rx="2.42" ry="2.42"/><rect class="cls-4" x="312" y="534.42" width="13.52" height="13.76" rx="2.42" ry="2.42"/><rect class="cls-4" x="328.69" y="534.42" width="13.52" height="13.76" rx="2.42" ry="2.42"/><rect class="cls-4" x="345.38" y="534.42" width="13.53" height="13.76" rx="2.42" ry="2.42"/><rect class="cls-4" x="362.07" y="534.42" width="13.52" height="13.76" rx="2.42" ry="2.42"/><rect class="cls-4" x="378.76" y="534.42" width="13.52" height="13.76" rx="2.42" ry="2.42"/><rect class="cls-4" x="199.82" y="550.57" width="13.52" height="13.76" rx="2.42" ry="2.42"/><rect class="cls-4" x="216.51" y="550.57" width="13.52" height="13.76" rx="2.42" ry="2.42"/><rect class="cls-4" x="233.2" y="550.57" width="13.52" height="13.76" rx="2.42" ry="2.42"/><rect class="cls-4" x="249.89" y="550.57" width="13.52" height="13.76" rx="2.42" ry="2.42"/><rect class="cls-4" x="266.58" y="550.57" width="13.52" height="13.76" rx="2.42" ry="2.42"/><rect class="cls-4" x="283.27" y="550.57" width="13.52" height="13.76" rx="2.42" ry="2.42"/><rect class="cls-4" x="299.96" y="550.57" width="13.52" height="13.76" rx="2.42" ry="2.42"/><rect class="cls-4" x="316.65" y="550.57" width="13.53" height="13.76" rx="2.42" ry="2.42"/><rect class="cls-4" x="333.34" y="550.57" width="13.53" height="13.76" rx="2.42" ry="2.42"/><rect class="cls-4" x="350.03" y="550.57" width="13.52" height="13.76" rx="2.42" ry="2.42"/><rect class="cls-4" x="366.72" y="550.57" width="13.52" height="13.76" rx="2.42" ry="2.42"/><rect class="cls-4" x="208.56" y="566.71" width="13.52" height="13.76" rx="2.42" ry="2.42"/><rect class="cls-4" x="225.25" y="566.71" width="13.52" height="13.76" rx="2.42" ry="2.42"/><rect class="cls-4" x="241.94" y="566.71" width="13.52" height="13.76" rx="2.42" ry="2.42"/><rect class="cls-4" x="258.63" y="566.71" width="13.52" height="13.76" rx="2.42" ry="2.42"/><rect class="cls-4" x="275.32" y="566.71" width="13.52" height="13.76" rx="2.42" ry="2.42"/><rect class="cls-4" x="292" y="566.71" width="13.53" height="13.76" rx="2.42" ry="2.42"/><rect class="cls-4" x="308.69" y="566.71" width="13.53" height="13.76" rx="2.42" ry="2.42"/><rect class="cls-4" x="325.38" y="566.71" width="13.52" height="13.76" rx="2.42" ry="2.42"/><rect class="cls-4" x="342.07" y="566.71" width="13.52" height="13.76" rx="2.42" ry="2.42"/><rect class="cls-4" x="358.76" y="566.71" width="13.53" height="13.76" rx="2.42" ry="2.42"/><rect class="cls-4" x="375.45" y="566.71" width="20.63" height="13.76" rx="2.46" ry="2.46"/><rect class="cls-4" x="191.59" y="582.85" width="13.53" height="13.76" rx="2.42" ry="2.42"/><rect class="cls-4" x="208.28" y="582.85" width="13.52" height="13.76" rx="2.42" ry="2.42"/><rect class="cls-4" x="224.97" y="582.85" width="13.52" height="13.76" rx="2.42" ry="2.42"/><rect class="cls-4" x="241.66" y="582.85" width="13.52" height="13.76" rx="2.42" ry="2.42"/><rect class="cls-4" x="258.35" y="582.85" width="13.52" height="13.76" rx="2.42" ry="2.42"/><rect class="cls-4" x="275.04" y="582.85" width="13.52" height="13.76" rx="2.42" ry="2.42"/><rect class="cls-4" x="291.73" y="582.85" width="13.52" height="13.76" rx="2.42" ry="2.42"/><rect class="cls-4" x="308.42" y="582.85" width="13.53" height="13.76" rx="2.42" ry="2.42"/><rect class="cls-4" x="325.11" y="582.85" width="13.52" height="13.76" rx="2.42" ry="2.42"/><rect class="cls-4" x="341.8" y="582.85" width="13.52" height="13.76" rx="2.42" ry="2.42"/><rect class="cls-4" x="358.49" y="582.85" width="20.64" height="13.76" rx="2.46" ry="2.46"/><rect class="cls-4" x="383.22" y="582.85" width="12.87" height="13.76" rx="2.3" ry="2.3"/><path class="cls-4" d="M255.08,608.19h86.73a2.4,2.4,0,0,1,2.4,2.4v41.7a2.4,2.4,0,0,1-2.4,2.4H255.08a2.41,2.41,0,0,1-2.41-2.41V610.6A2.4,2.4,0,0,1,255.08,608.19Z"/><rect class="cls-4" x="252.67" y="657.82" width="44.13" height="9.66" rx="0.5" ry="0.5"/><rect class="cls-4" x="300.08" y="657.82" width="44.13" height="9.66" rx="0.5" ry="0.5"/><path class="cls-10" d="M159.79,417.93H322.71q.13,10.1.23,20.19c.07,6.73.17,13.46.26,20.19h-152q-2.86-10.1-5.69-20.19T159.79,417.93Z"/><path class="cls-11" d="M159.79,417.93H322.71c0,.76,0,1.52,0,2.29H160.43C160.23,419.45,160,418.69,159.79,417.93Z"/><path class="cls-12" d="M259.74,424.26c-11.76,0-20.77,3.71-20.32,6.64s4,4.15,9.39,5.36c-.87.91-1.73,1.83-2.57,2.74l6.94-2c2.49.33.94.51,8.12.51s20.61-3,20.32-6.63S271.5,424.26,259.74,424.26Z"/><path class="cls-6" d="M251.15,430c1.57,0,2.92.47,3,1s-1.16,1-2.75,1-2.89-.47-2.95-1S249.58,430,251.15,430Z"/><path class="cls-6" d="M260.4,430c1.59,0,2.92.47,3,1s-1.19,1-2.77,1-2.92-.47-3-1S258.81,430,260.4,430Z"/><path class="cls-6" d="M269.65,430c1.59,0,2.89.47,2.95,1s-1.16,1-2.75,1-2.89-.47-2.95-1S268.06,430,269.65,430Z"/><path class="cls-13" d="M216,429.28c11.68,0,21.71,3.7,22.17,6.64s-2.69,4.16-7.63,5.36c1.1.91,2.23,1.83,3.35,2.74l-7.49-2c-2.4.33-.74.51-7.86.51s-21.39-3-22.23-6.64S204.36,429.28,216,429.28Z"/><path class="cls-6" d="M226.3,435c-1.56,0-2.75.47-2.66,1s1.44,1,3,1,2.75-.47,2.66-1S227.86,435,226.3,435Z"/><path class="cls-6" d="M217.13,435c-1.58,0-2.77.47-2.63,1s1.44,1,3,1,2.72-.47,2.63-1S218.71,435,217.13,435Z"/><path class="cls-6" d="M208,435c-1.56,0-2.75.47-2.6,1s1.47,1,3,1,2.75-.47,2.63-1S209.53,435,208,435Z"/><path class="cls-6" d="M257,440.13c-11.47,0-20.19,3.71-19.71,6.64s4,4.15,9.22,5.36c-.84.91-1.68,1.83-2.46,2.74l6.73-2c2.43.33.91.51,7.89.51s20-3,19.68-6.64S268.44,440.13,257,440.13Z"/><path class="cls-12" d="M248.67,445.86c1.55,0,2.86.47,2.95,1s-1.1,1-2.66,1-2.83-.47-2.92-1S247.12,445.86,248.67,445.86Z"/><path class="cls-12" d="M257.68,445.86c1.55,0,2.86.47,2.92,1s-1.16,1-2.66,1-2.83-.47-2.92-1S256.14,445.86,257.68,445.86Z"/><path class="cls-12" d="M266.67,445.86c1.53,0,2.83.47,2.89,1s-1.13,1-2.69,1-2.8-.47-2.86-1S265.14,445.86,266.67,445.86Z"/><path class="cls-14" d="M202.57,389.63H373.12q-.74,10.11-1.42,20.2c-.46,6.73-.9,13.46-1.36,20.19H210.69c-1.39-6.73-2.72-13.46-4.08-20.19S203.9,396.37,202.57,389.63Z"/><path class="cls-15" d="M202.57,389.63H373.12q-.13,1.14-.17,2.29H203Q202.74,390.77,202.57,389.63Z"/><path class="cls-16" d="M255.11,395.78H318.2c0,1.43.06,2.85.09,4.27H255.63Z"/><path class="cls-16" d="M215.78,401.92H358.35c0-.25,0-.5.06-.76H215.66C215.69,401.42,215.75,401.68,215.78,401.92Z"/><path class="cls-6" d="M216,403.33H358.32a6.57,6.57,0,0,1,0-.76H215.92C215.95,402.83,216,403.08,216,403.33Z"/><path class="cls-12" d="M216.24,404.5h38.41c.2,1.43.38,2.85.55,4.27H217C216.79,407.36,216.53,405.93,216.24,404.5Z"/><path class="cls-13" d="M268.06,404.5h38.38c.06,1.43.12,2.85.2,4.27H268.52C268.35,407.36,268.2,405.93,268.06,404.5Z"/><path class="cls-17" d="M319.85,404.5h38.38q-.09,2.14-.17,4.27H319.94Q319.9,406.65,319.85,404.5Z"/><path class="cls-6" d="M217.37,410.47h38l-.09-.75H217.22C217.28,410,217.31,410.23,217.37,410.47Z"/><path class="cls-6" d="M217.63,411.89h37.95l-.09-.76h-38A6.61,6.61,0,0,0,217.63,411.89Z"/><path class="cls-6" d="M217.89,413.3h37.86l-.09-.75H217.74C217.77,412.8,217.86,413,217.89,413.3Z"/><path class="cls-6" d="M218.15,414.71h37.78c-.06-.25-.06-.5-.12-.76H218C218.06,414.21,218.09,414.46,218.15,414.71Z"/><path class="cls-6" d="M268.67,410.47h38a6.33,6.33,0,0,1,0-.75H268.61C268.64,410,268.64,410.23,268.67,410.47Z"/><path class="cls-6" d="M268.81,411.89h37.92a6.57,6.57,0,0,0,0-.76h-38Z"/><path class="cls-6" d="M269,413.3h37.83a6.39,6.39,0,0,1,0-.75H268.9C268.9,412.8,269,413,269,413.3Z"/><path class="cls-6" d="M269.1,414.71h37.75a6.8,6.8,0,0,0,0-.76H269Z"/><path class="cls-6" d="M320,410.47h38a6.33,6.33,0,0,0,0-.75H319.94A6.44,6.44,0,0,1,320,410.47Z"/><path class="cls-6" d="M320,411.89h37.92c0-.25,0-.5,0-.76H320A6.7,6.7,0,0,0,320,411.89Z"/><path class="cls-6" d="M320,413.3h37.83c0-.25,0-.5.06-.75H320A6.39,6.39,0,0,1,320,413.3Z"/><path class="cls-6" d="M320.05,414.71H357.8V414H320A6.67,6.67,0,0,0,320.05,414.71Z"/><path class="cls-16" d="M218.55,416.94H357.69a6.47,6.47,0,0,0,0-.76H218.41C218.46,416.44,218.49,416.7,218.55,416.94Z"/><path class="cls-6" d="M244.82,418.55h40.23c0-.25,0-.5,0-.75H244.74A6.55,6.55,0,0,0,244.82,418.55Z"/><path class="cls-6" d="M245,420h40.15a6.68,6.68,0,0,0-.06-.75h-40.2A7,7,0,0,1,245,420Z"/><path class="cls-13" d="M218.69,417.8h19.74c.09.74.2,1.48.32,2.21H219.1C219,419.27,218.84,418.54,218.69,417.8Z"/><path class="cls-6" d="M317.4,418.55h40.2c0-.25,0-.5.06-.75H317.37C317.37,418,317.4,418.3,317.4,418.55Z"/><path class="cls-6" d="M317.42,420h40.12c0-.25,0-.5,0-.75H317.4A6.66,6.66,0,0,1,317.42,420Z"/><path class="cls-17" d="M291.36,417.8H311.1c0,.74,0,1.48.06,2.21H291.5C291.44,419.27,291.41,418.54,291.36,417.8Z"/><path class="cls-6" d="M245.26,421.65h40a3.29,3.29,0,0,0-.06-.75H245.14A7,7,0,0,1,245.26,421.65Z"/><path class="cls-6" d="M245.46,423.06H285.4c0-.25,0-.5-.06-.76h-40A6.59,6.59,0,0,0,245.46,423.06Z"/><path class="cls-12" d="M219.27,420.9H238.9c.12.74.2,1.47.35,2.21H219.71C219.53,422.37,219.42,421.63,219.27,420.9Z"/><path class="cls-6" d="M317.45,421.65h40a6.39,6.39,0,0,0,0-.75h-40Z"/><path class="cls-6" d="M317.48,423.06H357.4a6.88,6.88,0,0,1,.06-.76h-40Z"/><path class="cls-13" d="M291.56,420.9h19.62c0,.74,0,1.47.09,2.21H291.7C291.64,422.37,291.62,421.63,291.56,420.9Z"/><path class="cls-6" d="M245.72,424.75h39.83l-.09-.76H245.57C245.63,424.25,245.66,424.51,245.72,424.75Z"/><path class="cls-6" d="M245.89,426.16h39.74a6.63,6.63,0,0,0-.06-.75H245.81Z"/><path class="cls-17" d="M219.85,424h19.51l.35,2.21H220.26C220.11,425.47,220,424.74,219.85,424Z"/><path class="cls-6" d="M317.54,424.75h39.8a6.71,6.71,0,0,0,0-.76H317.51A6.69,6.69,0,0,0,317.54,424.75Z"/><path class="cls-6" d="M317.54,426.16h39.71c0-.25,0-.5.06-.75H317.54Z"/><path class="cls-12" d="M291.76,424h19.51c0,.74.06,1.48.09,2.21H291.9C291.85,425.47,291.79,424.74,291.76,424Z"/><path class="cls-12" d="M271.76,405.73H438q-1.78,10.1-3.53,20.19c-1.17,6.73-2.37,13.46-3.55,20.19H275.6c-.66-6.73-1.26-13.46-1.91-20.19S272.42,412.46,271.76,405.73Z"/><path class="cls-18" d="M271.76,405.73H438c-.14.76-.26,1.53-.4,2.28H272C271.93,407.25,271.85,406.49,271.76,405.73Z"/><path class="cls-18" d="M299.51,433.67H408l-.17,1.29H299.56C299.53,434.54,299.53,434.11,299.51,433.67Z"/><path class="cls-14" d="M313.12,432.6h-2.25c0,1.15.06,2.3.12,3.45h2.25C313.18,434.9,313.15,433.75,313.12,432.6Z"/><path class="cls-17" d="M334.39,415.48h34.1c4.86,0,8.68,1.41,8.55,3.12s-.26,3.47-.4,5.21-4.13,3.12-8.87,3.12H334.3c-4.71,0-8.6-1.41-8.61-3.12s0-3.48-.06-5.21S329.59,415.48,334.39,415.48Z"/><path class="cls-6" d="M343.58,417.86,359,421.22l-15.58,3.34C343.47,422.33,343.52,420.1,343.58,417.86Z"/><path class="cls-18" d="M392.63,437.08h3.55c0,.18,0,.35,0,.52h-2l-.09.76h-1.56c.06-.43.09-.85.14-1.29ZM394,439l-.09.76h2c0,.18,0,.35-.06.52h-3.53c0-.43.09-.85.14-1.29Zm7.89-1.89h3.58c-.06.43-.09.86-.17,1.29h-1.56c.06-.25.06-.51.12-.76h-2a3.08,3.08,0,0,0,.06-.52Zm3.35,1.89-.17,1.29H401.5c0-.17,0-.34.06-.52h2c.06-.25.06-.51.12-.76Z"/><path class="cls-18" d="M358.35,437.2l-4.22.72h-2.37c0,.49,0,1-.06,1.48h2.37l4.16.72C358.26,439.16,358.29,438.18,358.35,437.2Z"/><path class="cls-19" d="M360.11,437.1a4.09,4.09,0,0,1,2.34,1,.81.81,0,0,1,.26.67,1.11,1.11,0,0,1-.41.65,4.61,4.61,0,0,1-2.4.86,1.17,1.17,0,0,1-.2-.22,4,4,0,0,0,2-.72.86.86,0,0,0,.35-.58.92.92,0,0,0-.2-.58,3.54,3.54,0,0,0-2-.81Z"/><path class="cls-19" d="M360.11,437.62a2.67,2.67,0,0,1,.9.35h0a.85.85,0,0,1,.52.69c0,.24-.17.49-.55.7a3.15,3.15,0,0,1-1,.36c-.12-.06-.2-.13-.32-.2a2.31,2.31,0,0,0,.78-.29.84.84,0,0,0,.46-.58.86.86,0,0,0-.43-.56h0a2.51,2.51,0,0,0-.72-.27Z"/><path class="cls-19" d="M343.71,439.77v-.34h0a1.23,1.23,0,0,0,.49-.09.34.34,0,0,0,.23-.29.28.28,0,0,0-.2-.3,1.39,1.39,0,0,0-.55-.1h0v-.3h.16a3.18,3.18,0,0,1,1.18.19c.32.13.48.29.46.5s-.14.39-.49.52a3.77,3.77,0,0,1-1.31.2Zm0-1.83v-.34h.13a3.8,3.8,0,0,1,1.07.14.8.8,0,0,1,.55.39l-1.1,0a.2.2,0,0,0-.14-.18,1.41,1.41,0,0,0-.43-.06Zm0-.34v.34a1.39,1.39,0,0,0-.57.12c-.15.06-.23.23-.29.48a2.36,2.36,0,0,1,.85-.18v.3a1.38,1.38,0,0,0-.54.09c-.14.07-.23.15-.23.28s.09.22.26.3a1.24,1.24,0,0,0,.51.11v.34h0a3.55,3.55,0,0,1-1.47-.25.82.82,0,0,1-.52-.82.92.92,0,0,1,.61-.84,3.7,3.7,0,0,1,1.4-.26Zm-18.46,2.17v-.34h0a1.17,1.17,0,0,0,.35,0,.4.4,0,0,0,.23-.16.9.9,0,0,0,.09-.54c0-.25,0-.43-.06-.51a.53.53,0,0,0-.26-.19,1.17,1.17,0,0,0-.35,0h0v-.34h0a3.14,3.14,0,0,1,1.3.22,1,1,0,0,1,0,1.74,3,3,0,0,1-1.27.21Zm2.28,0c.43-.73.93-1.46,1.39-2.2h.81l-1.39,2.2Zm6.3-.41v.38H330a.75.75,0,0,1,.38-.41,6.52,6.52,0,0,1,1.24-.52,7.35,7.35,0,0,0,.92-.34c.12-.07.22-.17.2-.25a.24.24,0,0,0-.17-.2,1.66,1.66,0,0,0-.58-.08,1.52,1.52,0,0,0-.52.08c-.17.06-.23.13-.23.25l-1.1,0c.06-.23.26-.39.61-.49a4.81,4.81,0,0,1,1.3-.14,4,4,0,0,1,1.3.17c.31.12.52.25.52.42a.42.42,0,0,1-.14.28,1.76,1.76,0,0,1-.43.27c-.14.07-.41.15-.75.27l-.64.23-.26.12Zm1.16-.76a1.91,1.91,0,0,0,0-.4h1.1a1.93,1.93,0,0,1,0,.4Zm0,1.13a1.94,1.94,0,0,0,0-.41h1.13v.41Zm2.22-.55,1.16,0c0,.1.09.17.23.22a1.63,1.63,0,0,0,.55.08,1.39,1.39,0,0,0,.58-.1A.37.37,0,0,0,340,439c0-.13-.08-.23-.23-.29a1.6,1.6,0,0,0-.61-.1,2.22,2.22,0,0,0-.87.16l-.9,0a11.16,11.16,0,0,1,.61-1.11h2.89V438h-2.08a2.54,2.54,0,0,0-.2.36,4.44,4.44,0,0,1,.78-.07,3.4,3.4,0,0,1,1.21.19c.37.14.51.31.49.52a.57.57,0,0,1-.38.47,3.54,3.54,0,0,1-1.56.28,4.65,4.65,0,0,1-1.3-.16C337.49,439.5,337.31,439.36,337.22,439.18Zm-12-1.59v.34a1.38,1.38,0,0,0-.35,0,.39.39,0,0,0-.23.17,1,1,0,0,0-.12.53,1,1,0,0,0,.09.51.45.45,0,0,0,.26.19,1.56,1.56,0,0,0,.35,0v.34a3.23,3.23,0,0,1-1.33-.24.86.86,0,0,1-.52-.84.92.92,0,0,1,.58-.87,3.08,3.08,0,0,1,1.27-.22Zm-4.47,2.17v-.34h0a1.17,1.17,0,0,0,.35,0,.44.44,0,0,0,.26-.16,1.09,1.09,0,0,0,.09-.54.87.87,0,0,0-.09-.51.64.64,0,0,0-.29-.19,1.17,1.17,0,0,0-.33,0v-.34a3.17,3.17,0,0,1,1.32.22,1,1,0,0,1,0,1.74,3,3,0,0,1-1.27.21Zm-7.14-2.17a3.23,3.23,0,0,1,1.29.22,1,1,0,0,1,.06,1.74,3.05,3.05,0,0,1-1.3.21h0v-.34h0a1.32,1.32,0,0,0,.35,0,.37.37,0,0,0,.23-.16.9.9,0,0,0,.09-.54,1,1,0,0,0-.12-.51A.51.51,0,0,0,314,438a1.24,1.24,0,0,0-.36,0v-.34Zm7.14,0v.34h0a1.17,1.17,0,0,0-.35,0,.48.48,0,0,0-.23.17.88.88,0,0,0-.12.53.89.89,0,0,0,.12.51.44.44,0,0,0,.26.19,1.35,1.35,0,0,0,.33,0v.34a3.16,3.16,0,0,1-1.34-.24.89.89,0,0,1-.52-.84.91.91,0,0,1,.55-.87,3.1,3.1,0,0,1,1.3-.22Zm-4.09,1a.94.94,0,0,0,0-.4h1.1a1.86,1.86,0,0,1,0,.4Zm.06,1.13c0-.13,0-.27,0-.41h1.1v.41Zm-3.12-2.14h0v.34h0a1.17,1.17,0,0,0-.35,0,.37.37,0,0,0-.23.17.87.87,0,0,0-.12.53,1,1,0,0,0,.12.51.44.44,0,0,0,.26.19,1.35,1.35,0,0,0,.33,0v.34a3.13,3.13,0,0,1-1.32-.24.91.91,0,0,1-.55-.84.86.86,0,0,1,.55-.87A3.11,3.11,0,0,1,313.64,437.6Z"/><path class="cls-18" d="M299.68,437.2l6.68,1.47-6.5,1.47Z"/><path class="cls-1" d="M508.07,741.64l-3.52-13.84,5-1.26-3.9-15.34L510.2,710l-3.11-12.24c-3.6-.81-6.6-2.32-8.5-4.73l-21-26.76-5.17-21.94c1.63-5,11.28-11.43,13.63-.79l2.29,10.33,7.37,10.68c-1.79-6.87-3.25-12.7-4.56-17.48l-11-32.27-5.86-14.3c-3.21-9.4,10.77-13.82,13.85-4.8l5.4,13,9.29,27.17q.77-.81,1.62-1.55l-6.31-27.08-6.74-19.32c-2.19-9.4,11.09-12.53,14.27-3.34l6.83,19.69,5.45,23.38a11.78,11.78,0,0,1,1.6-.28l-3.33-23.08-5-17.05c-1.27-8.77,12.94-12.29,14.54-1.86L531,602.87l4,26a8.87,8.87,0,0,1,2,1.06l-1-17.07-3.55-13c-2.77-10.16,14.11-11.36,14.63-.94l4,14.87,1,29.58c4.53,18.87,2.51,32.93-4.93,42.13l3.62,14.23,4.59-1.17,3.9,15.34,5-1.26,7.37,29Z"/><rect class="cls-20" x="495.86" y="667.1" width="41.75" height="58.26" transform="translate(-155.65 148.83) rotate(-14.27)"/><path class="cls-21" d="M476.48,634.53c1.31,4.78,2.77,10.6,4.56,17.48l-7.37-10.68L471.39,631c-2.36-10.64-12-4.18-13.63.79l5.17,21.94,21,26.76c5,6.33,17.53,6.45,28.38,4,22.44-5,32.36-23,25-53.69l-1-29.58-4-14.87c-.52-10.42-17.4-9.23-14.63.94l3.55,13,1,17.07a8.74,8.74,0,0,0-2-1.06l-4-26-5.18-17.51c-1.6-10.42-15.8-6.91-14.54,1.86l5,17.05,3.34,23.08a11.6,11.6,0,0,0-1.6.28l-5.45-23.38L491,572c-3.19-9.18-16.46-6.06-14.27,3.34l6.74,19.32,6.31,27.08q-.84.74-1.62,1.55l-9.29-27.17-5.4-13c-3.08-9-17.06-4.6-13.85,4.8l5.86,14.3Z"/><rect class="cls-2" x="492.08" y="692.07" width="51.22" height="15.83" transform="translate(-156.56 149.2) rotate(-14.27)"/><polygon class="cls-12" points="496.59 741.64 489.87 715.22 549.41 700.08 559.98 741.64 496.59 741.64"/><path class="cls-1" d="M137.94,741.64l21.92-38.27-4.43-2.54,7.86-13.73-4.11-2.35,6.41-11.19a16.66,16.66,0,0,0,9.32-2.05l49.15-30.15c-.85-5.26-6.2-13.32-15.88-8.33l-22.89,11.81c3.57-6.14,6.54-11.37,9.08-15.62l32.15-46.95c5.61-8.2-6.67-16.19-12.06-8.33l-28.3,41.32q-.53-1-1.14-1.93l11.91-21.95c4.63-8.47-8.22-15.59-12.85-7l-10.27,19a11.58,11.58,0,0,0-1.47-.7l6.83-15.52c3.57-8.11-9.18-15.3-13.51-5.69l-8.58,18.55a8.85,8.85,0,0,0-2.19.49l3.35-9.81c3.4-10-10.55-14.72-13.84-4.82l-7.61,23.55c-9.41,17-11.23,31.05-6.53,41.91L122.95,664l-4.11-2.35L111,675.38l-4.43-2.54-39.41,68.8Z"/><rect class="cls-20" x="95.24" y="644.43" width="58.26" height="41.75" transform="translate(-514.76 442.58) rotate(-60.2)"/><path class="cls-21" d="M179.67,616.64c-2.54,4.25-5.51,9.47-9.07,15.62l22.89-11.81c9.68-5,15,3.07,15.88,8.33l-49.15,30.15c-6.85,4.2-18.61,1.52-28.41-3.74-20.27-10.87-25-30.84-9.72-58.42l7.61-23.55c3.29-9.9,17.25-5.15,13.84,4.82l-3.35,9.81a8.77,8.77,0,0,1,2.19-.49L151,568.81c4.33-9.62,17.08-2.43,13.51,5.69L157.64,590a11.52,11.52,0,0,1,1.47.7l10.27-19c4.63-8.55,17.48-1.43,12.85,7l-11.91,21.95q.61.94,1.14,1.93l28.3-41.32c5.38-7.86,17.67.13,12.06,8.33Z"/><rect class="cls-2" x="114.53" y="643.05" width="15.83" height="51.22" transform="translate(-518.65 442.61) rotate(-60.2)"/><polygon class="cls-12" points="116.05 741.64 145.17 690.8 91.86 660.26 45.25 741.64 116.05 741.64"/><path class="cls-1" d="M34.51,164H88.87a18.8,18.8,0,0,1,18.75,18.75V286.95A18.8,18.8,0,0,1,88.87,305.7H34.51A18.8,18.8,0,0,1,15.76,287V182.78A18.8,18.8,0,0,1,34.51,164Z"/><rect class="cls-22" x="543.6" y="196.91" width="54.39" height="108.79" rx="11.1" ry="11.1"/><rect class="cls-22" x="215.35" y="164.21" width="201.79" height="141.49" rx="29.23" ry="29.23"/><path class="cls-6" d="M18.75,150.53H73.11a18.8,18.8,0,0,1,18.75,18.75V273.45A18.8,18.8,0,0,1,73.11,292.2H18.75A18.8,18.8,0,0,1,0,273.45V169.28A18.8,18.8,0,0,1,18.75,150.53Z"/><rect class="cls-23" x="5.41" y="165.33" width="81.04" height="107.19"/><path class="cls-3" d="M32.32,158.36H59.54A1.35,1.35,0,0,0,60.88,157h0a1.35,1.35,0,0,0-1.34-1.34H32.32A1.35,1.35,0,0,0,31,157h0A1.35,1.35,0,0,0,32.32,158.36Z"/><path class="cls-3" d="M23,284.61H68.86a2.09,2.09,0,0,0,2.08-2.08h0a2.09,2.09,0,0,0-2.08-2.08H23a2.09,2.09,0,0,0-2.08,2.08h0A2.09,2.09,0,0,0,23,284.61Z"/><circle class="cls-2" cx="45.93" cy="282.53" r="8.16"/><circle class="cls-4" cx="45.93" cy="282.53" r="5.75"/><rect class="cls-24" x="31.42" y="171.41" width="29.02" height="13.45"/><rect class="cls-24" x="12.82" y="188.35" width="66.22" height="2.37"/><rect class="cls-2" x="12.82" y="192.79" width="66.22" height="2.37"/><rect class="cls-25" x="12.82" y="198.87" width="17.91" height="13.45"/><rect class="cls-26" x="36.97" y="198.87" width="17.91" height="13.45"/><rect class="cls-27" x="61.13" y="198.87" width="17.91" height="13.45"/><rect class="cls-2" x="12.82" y="215.28" width="17.91" height="2.37"/><rect class="cls-2" x="12.82" y="219.72" width="17.91" height="2.37"/><rect class="cls-2" x="12.82" y="224.16" width="17.91" height="2.37"/><rect class="cls-2" x="12.82" y="228.6" width="17.91" height="2.37"/><rect class="cls-2" x="36.97" y="215.28" width="17.91" height="2.37"/><rect class="cls-2" x="36.97" y="219.72" width="17.91" height="2.37"/><rect class="cls-2" x="36.97" y="224.16" width="17.91" height="2.37"/><rect class="cls-2" x="36.97" y="228.6" width="17.91" height="2.37"/><rect class="cls-2" x="61.13" y="215.28" width="17.91" height="2.37"/><rect class="cls-2" x="61.13" y="219.72" width="17.91" height="2.37"/><rect class="cls-2" x="61.13" y="224.16" width="17.91" height="2.37"/><rect class="cls-2" x="61.13" y="228.6" width="17.91" height="2.37"/><rect class="cls-24" x="12.82" y="235.63" width="66.22" height="2.37"/><rect class="cls-2" x="25.21" y="240.68" width="19.2" height="2.37"/><rect class="cls-2" x="25.21" y="245.12" width="19.2" height="2.37"/><rect class="cls-26" x="12.82" y="240.68" width="9.4" height="6.95"/><rect class="cls-2" x="59.84" y="240.68" width="19.2" height="2.37"/><rect class="cls-2" x="59.84" y="245.12" width="19.2" height="2.37"/><rect class="cls-27" x="47.45" y="240.68" width="9.4" height="6.95"/><rect class="cls-2" x="25.21" y="250.44" width="19.2" height="2.37"/><rect class="cls-2" x="25.21" y="254.88" width="19.2" height="2.37"/><rect class="cls-25" x="12.82" y="250.44" width="9.4" height="6.95"/><rect class="cls-2" x="59.84" y="250.44" width="19.2" height="2.37"/><rect class="cls-2" x="59.84" y="254.88" width="19.2" height="2.37"/><rect class="cls-26" x="47.45" y="250.44" width="9.4" height="6.95"/><rect class="cls-2" x="25.21" y="260.2" width="19.2" height="2.37"/><rect class="cls-2" x="25.21" y="264.64" width="19.2" height="2.37"/><rect class="cls-27" x="12.82" y="260.2" width="9.4" height="6.95"/><rect class="cls-2" x="59.84" y="260.2" width="19.2" height="2.37"/><rect class="cls-2" x="59.84" y="264.64" width="19.2" height="2.37"/><rect class="cls-25" x="47.45" y="260.2" width="9.4" height="6.95"/><path class="cls-6" d="M538.94,183.41h32.19a11.14,11.14,0,0,1,11.1,11.1v86.58a11.13,11.13,0,0,1-11.1,11.1H538.94a11.13,11.13,0,0,1-11.1-11.1V194.51A11.13,11.13,0,0,1,538.94,183.41Z"/><rect class="cls-23" x="531.83" y="194.77" width="46.46" height="82.31"/><path class="cls-3" d="M544.61,189.42h20.9a1,1,0,0,0,1-1h0a1,1,0,0,0-1-1h-20.9a1,1,0,0,0-1,1h0A1,1,0,0,0,544.61,189.42Z"/><path class="cls-3" d="M537.45,286.37h35.21a1.6,1.6,0,0,0,1.6-1.6h0a1.61,1.61,0,0,0-1.6-1.6H537.45a1.61,1.61,0,0,0-1.6,1.6h0A1.61,1.61,0,0,0,537.45,286.37Z"/><circle class="cls-2" cx="555.04" cy="284.77" r="6.26"/><circle class="cls-4" cx="555.04" cy="284.77" r="4.42"/><path class="cls-14" d="M563,197.77c-7,0-12.63,4.88-12.63,10.89a10.49,10.49,0,0,0,5.18,8.8l-1.78,4.5,4.36-3.24a14.32,14.32,0,0,0,4.87.84c7,0,12.63-4.88,12.63-10.89S570,197.77,563,197.77Z"/><circle class="cls-2" cx="557.45" cy="208.88" r="1.71"/><circle class="cls-2" cx="562.98" cy="208.88" r="1.71"/><circle class="cls-2" cx="568.5" cy="208.88" r="1.71"/><path class="cls-13" d="M547.19,223.21c7,0,12.63,4.88,12.63,10.89a10.49,10.49,0,0,1-5.18,8.79l1.78,4.5-4.36-3.24a14.34,14.34,0,0,1-4.87.84c-7,0-12.63-4.88-12.63-10.89S540.22,223.21,547.19,223.21Z"/><circle class="cls-2" cx="552.72" cy="234.32" r="1.71"/><circle class="cls-2" cx="547.19" cy="234.32" r="1.71"/><circle class="cls-2" cx="541.67" cy="234.32" r="1.71"/><path class="cls-6" d="M563,249.63c-7,0-12.63,4.88-12.63,10.89a10.49,10.49,0,0,0,5.18,8.79l-1.78,4.5,4.36-3.24a14.32,14.32,0,0,0,4.87.84c7,0,12.63-4.88,12.63-10.89S570,249.63,563,249.63Z"/><circle class="cls-23" cx="557.45" cy="260.73" r="1.71"/><circle class="cls-23" cx="562.98" cy="260.73" r="1.71"/><circle class="cls-23" cx="568.5" cy="260.73" r="1.71"/><rect class="cls-2" x="199.59" y="150.71" width="201.79" height="141.49" rx="29.23" ry="29.23"/><rect class="cls-23" x="216.51" y="160.76" width="166.25" height="121.39" rx="0.43" ry="0.43"/><rect class="cls-4" x="204.58" y="204.4" width="3.06" height="34.1" rx="1.53" ry="1.53"/><circle class="cls-4" cx="391.78" cy="221.45" r="5.17"/><rect class="cls-19" x="237.89" y="253.73" width="125.18" height="4.07"/><rect class="cls-25" x="251.05" y="250.34" width="2.6" height="10.85"/><rect class="cls-27" x="268.17" y="196.49" width="57.83" height="36.06" rx="9.83" ry="9.83"/><polygon class="cls-6" points="288.32 203.97 305.85 214.52 288.32 225.06 288.32 203.97"/><path class="cls-18" d="M345.73,264.45h4.14v1.65h-2.31v2.4h-1.82v-4.05Zm1.82,5.95v2.4h2.31v1.65h-4.14V270.4Zm8.94-5.95h4.14v4.05h-1.83v-2.4H356.5v-1.65Zm4.14,5.95v4.05H356.5v-1.65h2.31v-2.4Z"/><polygon class="cls-18" points="305.96 264.84 301.11 267.11 298.35 267.11 298.35 271.8 301.11 271.8 305.96 274.06 305.96 264.84"/><path class="cls-19" d="M308,264.53a4.89,4.89,0,0,1,2.8,3,6,6,0,0,1,.33,2.09,5.86,5.86,0,0,1-.41,2.06,4.58,4.58,0,0,1-2.73,2.69l-.24-.69a3.86,3.86,0,0,0,2.29-2.28,5.14,5.14,0,0,0,.36-1.8,5.26,5.26,0,0,0-.29-1.84,4.17,4.17,0,0,0-2.38-2.55Z"/><path class="cls-19" d="M308,266.15a3.33,3.33,0,0,1,1.08,1.09h0a4.31,4.31,0,0,1,.62,2.16,4.08,4.08,0,0,1-.57,2.21,3.46,3.46,0,0,1-1.13,1.14l-.38-.62a2.74,2.74,0,0,0,.89-.9,3.35,3.35,0,0,0,.46-1.81,3.57,3.57,0,0,0-.51-1.79h0a2.59,2.59,0,0,0-.84-.85Z"/><text class="cls-28" transform="translate(251.99 273.76)">0:00/2:56</text><polygon class="cls-18" points="237.89 264.82 245.59 269.45 237.89 274.09 237.89 264.82"/></g></g></svg>