<svg xmlns="http://www.w3.org/2000/svg" viewBox="0 0 809.35 1051.74"><defs><style>.cls-1{fill:#6a6363;}.cls-2{fill:#5d5957;}.cls-3{fill:none;}.cls-4{fill:#565351;}.cls-5{fill:#fbc584;}.cls-6{fill:#d7a36b;}.cls-7{fill:#93c5c3;}.cls-8{fill:#eeb97b;}.cls-9{fill:#794014;}.cls-10{fill:#84471c;}.cls-11{fill:#193540;}.cls-12{fill:#2e5671;}.cls-13{fill:#dd8c58;}.cls-14{fill:#f2a064;}</style></defs><title>Recurso 2</title><g id="Capa_2" data-name="Capa 2"><g id="Layer_1" data-name="Layer 1"><path class="cls-1" d="M711.28,937.43c-2.58,4.33-4.94,9.58-7.91,15-2.55,5.66-5.57,11.55-8.27,18.08-2.94,6.36-5.4,13.37-8.25,20.45s-4.87,14.78-7.69,22.25c-2,7.78-4.74,15.45-6.66,23.39-1.16,5.1-2.57,10.13-3.82,15.17H809.35c-20.55-79.41-85.92-261.6-258.84-298.65L408.28,848.46l-3.6-2.49v2.88l8.27-.67,58.06,11-14.74,28.71-34.14,67.81,8.74,96.08H647.1c1.24-6.91,3.17-13.79,4.66-20.74,2.17-8.39,5.1-16.58,7.76-24.67,3.25-7.91,6.41-15.72,10.06-23A183.39,183.39,0,0,1,681,962.9c3.71-6.45,8.21-12,12-17.17a157.62,157.62,0,0,1,21.66-22.51,81.66,81.66,0,0,1,9.58-6.92s-2.51,3.51-6.38,9.74C716,929.2,713.75,933,711.28,937.43Z"/><path class="cls-2" d="M274.63,756.08S44.68,788.29,0,1051.74H142.56c-.05-.3-.13-.61-.18-.92-1.47-7.93-3.9-15.73-5.72-23.68s-4.62-15.61-6.66-23.39c-2.81-7.47-4.77-15.2-7.7-22.24S117,967.4,114.07,961c-2.71-6.52-5.73-12.42-8.27-18.08-3-5.38-5.34-10.63-7.91-15s-4.72-8.22-6.63-11.39c-3.87-6.24-6.39-9.73-6.39-9.73a83,83,0,0,1,9.59,6.91,157.59,157.59,0,0,1,21.66,22.52c3.83,5.19,8.32,10.72,12,17.17a182.16,182.16,0,0,1,11.44,20.46c3.66,7.26,6.82,15.06,10.07,23,2.66,8.1,5.6,16.28,7.76,24.67,1.81,8.45,4.33,16.79,5.39,25.24.25,1.65.49,3.3.74,4.94H382l9.18-96.08L357,887.85l5.15-17.58,33.24-20.67,9.27-.75V846Z"/><polygon class="cls-3" points="395.41 849.6 362.17 870.27 357.02 887.85 365.03 873.99 395.41 849.6"/><polygon class="cls-3" points="456.26 887.85 471 859.14 412.95 848.17 443.23 879.95 456.26 887.85"/><path class="cls-4" d="M157.42,1021.56c-2.16-8.39-5.1-16.58-7.76-24.67-3.24-7.92-6.4-15.72-10.07-23a182.16,182.16,0,0,0-11.44-20.46c-3.7-6.45-8.2-12-12-17.17a157.59,157.59,0,0,0-21.66-22.52,83,83,0,0,0-9.59-6.91s2.52,3.49,6.39,9.73c1.9,3.17,4.17,7,6.63,11.39s4.95,9.59,7.91,15c2.54,5.66,5.56,11.56,8.27,18.08,2.94,6.37,5.4,13.39,8.24,20.47s4.88,14.77,7.7,22.24c2,7.78,4.75,15.45,6.66,23.39s4.25,15.75,5.72,23.68c0,.31.12.62.18.92h21c-.25-1.64-.49-3.29-.74-4.94C161.75,1038.36,159.23,1030,157.42,1021.56Z"/><path class="cls-4" d="M679.16,1013.19c2.82-7.47,4.77-15.2,7.69-22.25s5.31-14.09,8.25-20.45c2.7-6.53,5.72-12.42,8.27-18.08,3-5.39,5.33-10.64,7.91-15s4.73-8.23,6.63-11.4c3.87-6.23,6.38-9.74,6.38-9.74a81.66,81.66,0,0,0-9.58,6.92,157.62,157.62,0,0,0-21.66,22.51c-3.82,5.2-8.32,10.72-12,17.17a183.39,183.39,0,0,0-11.44,20.46c-3.66,7.25-6.81,15.06-10.06,23-2.66,8.09-5.59,16.28-7.76,24.67-1.49,7-3.41,13.83-4.66,20.74h21.59c1.25-5,2.66-10.07,3.82-15.17C674.42,1028.63,677.13,1021,679.16,1013.19Z"/><rect class="cls-5" x="304.27" y="610.06" width="201.5" height="238.4"/><polygon class="cls-6" points="303.97 735.36 511.7 619 303.92 571.33 303.97 735.36"/><polyline class="cls-7" points="456.26 887.85 471 859.14 412.95 848.17"/><polygon class="cls-7" points="395.41 849.6 362.17 870.27 357.02 887.85 365.03 873.99 395.41 849.6"/><path class="cls-8" d="M149.46,317.24c0,179.08,111.88,324.61,251,328.61V53.23C263.76,57.68,149.46,140.66,149.46,317.24Z"/><path class="cls-5" d="M412.2,53c-3.91,0-7.8.09-11.68.21V645.85c2,.05,3.9.19,5.85.19,141.9,0,256.9-147.21,256.9-328.8S554.09,53,412.2,53Z"/><path class="cls-5" d="M637.37,337.87c-5.52,37.91,5.1,70.86,23.7,73.59s38.17-25.76,43.69-63.67-5.11-70.85-23.71-73.59S642.89,300,637.37,337.87Z"/><path class="cls-9" d="M277,21.71c-13.22,4.81-31.76,6.48-46.49,7-13.49.46-23.8-.07-23.8-.07a109.67,109.67,0,0,0,4.83,12.21c2.23,5.08,4.38,9.68,4.38,9.68-2.58.26-7.3-1-13-3.13-19.68-7.22-51.55-24.52-51.55-24.52C148,49.38,154.31,73,161.51,90s15.26,27.35,15.26,27.35c-5.76,1.15-21.89-5.76-21.89-5.76,4.61,21.89,9.22,32.27,9.22,32.27-34.65,25.3-42.7,98.34-43.34,155.47l59.46,69.38,20.51-49.79c.44.05.86.07,1.3.13,14.52-52.42,26.58-131.41,26.58-131.41,63.12,40.52,124.18,51.36,176.07,48.94V2.13C340.42,6.93,286.06,18.42,277,21.71Z"/><path class="cls-10" d="M680.39,268.83c-6.14-81.22-39.26-140-39.26-140C663.29,30.07,570.92,2.54,473.54.17c-23.16-.56-46.6.3-68.86,2V236.58c75.55-3.52,131.63-35.15,146.25-44.21,4.7-5.13,7.15-8.21,7.15-8.21,8.79,99.59,76.15,167,76.15,167-5.65-42.3,42.88-75.46,46.49-77.87l.34-.23C680.86,271.59,680.61,270.25,680.39,268.83Z"/><path class="cls-11" d="M151.46,274.8s42.36-213.42,246-213.42S654.9,247.11,654.9,247.11l-31,3.26S573.43,110.26,403.18,110.26,172.64,274.8,172.64,274.8Z"/><path class="cls-12" d="M632.08,263.4S651.64,429.58,646.74,441c0,0,65.17,9.77,66.81-42.36V309s-2.63-31.45-40.73-45.62H638.59"/><path class="cls-11" d="M452.15,536.23s144.09-11.29,202.75-80c0,0,14.59-10.35,25,10.35s-144,90.32-227.7,94.09c0,0-3.76,15.06-45.15,16s-50.81-13.17-50.81-13.17-19.76-22.59,3.76-38.58,43.23-9.74,43.23-9.74S443.69,517.41,452.15,536.23Z"/><path class="cls-8" d="M166.88,334.78c3.61,37.41-7.32,69.09-24.39,70.75s-33.83-27.31-37.43-64.72,7.32-69.1,24.39-70.77S163.29,297.36,166.88,334.78Z"/><polygon class="cls-13" points="395.41 849.6 365.03 873.99 357.02 887.85 391.15 955.66 381.97 1051.74 404.68 1051.74 404.68 848.84 395.41 849.6"/><polygon class="cls-14" points="422.12 955.66 456.26 887.85 452.72 868.69 412.95 848.17 404.68 848.84 404.68 1051.74 430.87 1051.74 422.12 955.66"/><polygon class="cls-4" points="286.5 726.27 408.28 848.46 331.56 910.14 262.78 753.09 286.5 726.27"/><polygon class="cls-4" points="526.79 726.27 408.28 848.46 487.53 912.58 550.52 753.09 526.79 726.27"/></g></g></svg>